<svg id="Layer_1" data-name="Layer 1" xmlns="http://www.w3.org/2000/svg" xmlns:xlink="http://www.w3.org/1999/xlink" width="1920" height="1080" viewBox="0 0 1920 1080"><defs><style>.cls-1,.cls-31{fill:none;}.cls-2{clip-path:url(#clip-path);}.cls-3{fill:url(#linear-gradient);}.cls-4{fill:#4f006a;stroke:#c90;stroke-width:2px;}.cls-22,.cls-31,.cls-33,.cls-4{stroke-miterlimit:10;}.cls-36,.cls-5{fill:#1a1a1a;}.cls-5{opacity:0.4;}.cls-6{opacity:0.3;fill:url(#linear-gradient-2);}.cls-7{fill:#666;}.cls-8{fill:#ffe1a9;}.cls-9{fill:#d6bf91;}.cls-10{fill:url(#radial-gradient);}.cls-11{fill:#fff;}.cls-12{fill:url(#radial-gradient-2);}.cls-13{fill:#1d1d1b;}.cls-14{fill:#f3aba6;}.cls-15{fill:#e7bfa7;}.cls-16{fill:#b17f49;}.cls-17{fill:#bad7e9;}.cls-18{opacity:0.5;}.cls-19{fill:#ececec;}.cls-20{fill:#f5f5f5;}.cls-21{fill:url(#radial-gradient-3);}.cls-22{fill:#333;}.cls-22,.cls-31,.cls-33{stroke:#000;}.cls-23{fill:#ffc835;}.cls-24{fill:gray;}.cls-25{fill:url(#radial-gradient-4);}.cls-26{fill:url(#New_Gradient_Swatch_3);}.cls-27{fill:url(#New_Gradient_Swatch_3-2);}.cls-28{fill:#8c7966;}.cls-29{fill:#7a6a58;}.cls-30{fill:#615445;}.cls-32{fill:url(#radial-gradient-5);}.cls-33{fill:#4d4d4d;}.cls-34{fill:url(#linear-gradient-3);}.cls-35{fill:url(#linear-gradient-4);}.cls-37{fill:#25210b;}.cls-38{fill:url(#linear-gradient-5);}</style><clipPath id="clip-path"><rect class="cls-1" width="1921" height="1080"/></clipPath><linearGradient id="linear-gradient" x1="960" x2="960" y2="1080" gradientUnits="userSpaceOnUse"><stop offset="0.01" stop-color="#4d404d"/><stop offset="0.25" stop-color="#4d374d"/><stop offset="0.47" stop-color="#4d294d"/><stop offset="1" stop-color="#130c40"/></linearGradient><linearGradient id="linear-gradient-2" x1="1159" y1="414.5" x2="2128" y2="414.5" gradientUnits="userSpaceOnUse"><stop offset="0" stop-color="#150200"/><stop offset="1" stop-color="#ff7bac" stop-opacity="0"/></linearGradient><radialGradient id="radial-gradient" cx="547.5" cy="919.5" r="198.51" gradientUnits="userSpaceOnUse"><stop offset="0" stop-color="#f2d0ba"/><stop offset="0.35" stop-color="#eecbb1"/><stop offset="0.93" stop-color="#e4bd97"/><stop offset="1" stop-color="#e3bb94"/></radialGradient><radialGradient id="radial-gradient-2" cx="550.89" cy="667.24" r="127.82" gradientUnits="userSpaceOnUse"><stop offset="0" stop-color="#f2d0ba"/><stop offset="0.47" stop-color="#f1cfb8"/><stop offset="0.7" stop-color="#eecbb0"/><stop offset="0.87" stop-color="#e9c3a3"/><stop offset="1" stop-color="#e3bb94"/></radialGradient><radialGradient id="radial-gradient-3" cx="1711.87" cy="825.77" r="322.28" gradientUnits="userSpaceOnUse"><stop offset="0" stop-color="#f2d0ba"/><stop offset="0.03" stop-color="#f1cfb8"/><stop offset="0.35" stop-color="#e9c4a4"/><stop offset="0.67" stop-color="#e5bd98"/><stop offset="1" stop-color="#e3bb94"/></radialGradient><radialGradient id="radial-gradient-4" cx="1731" cy="389.63" r="216.19" gradientUnits="userSpaceOnUse"><stop offset="0" stop-color="#f2d0ba"/><stop offset="1" stop-color="#e3bb94"/></radialGradient><linearGradient id="New_Gradient_Swatch_3" x1="1832.04" y1="364.79" x2="1843.42" y2="351.22" gradientUnits="userSpaceOnUse"><stop offset="0" stop-color="#754c24"/><stop offset="0.1" stop-color="#714921"/><stop offset="0.57" stop-color="#643c17"/><stop offset="1" stop-color="#603813"/></linearGradient><linearGradient id="New_Gradient_Swatch_3-2" x1="1650.29" y1="352.79" x2="1608.58" y2="367.97" xlink:href="#New_Gradient_Swatch_3"/><radialGradient id="radial-gradient-5" cx="1716.71" cy="923.26" r="227.28" xlink:href="#radial-gradient-4"/><linearGradient id="linear-gradient-3" x1="472.02" y1="1021.13" x2="522.84" y2="1021.13" gradientUnits="userSpaceOnUse"><stop offset="0" stop-color="#e3bb94"/><stop offset="0.22" stop-color="#e7c09d"/><stop offset="0.59" stop-color="#f1ceb7"/><stop offset="0.63" stop-color="#f2d0ba"/></linearGradient><linearGradient id="linear-gradient-4" x1="571.58" y1="1031.59" x2="622.4" y2="1031.59" gradientUnits="userSpaceOnUse"><stop offset="0.42" stop-color="#f2d0ba"/><stop offset="1" stop-color="#e3bb94"/></linearGradient><linearGradient id="linear-gradient-5" x1="241.5" y1="329.15" x2="241.5" y2="196" gradientUnits="userSpaceOnUse"><stop offset="0.22" stop-color="#4d4d4d"/><stop offset="0.85" stop-color="#333"/></linearGradient></defs><g class="cls-2"><g id="startside"><rect class="cls-3" width="1920" height="1080"/><path class="cls-4" d="M805,168.57q-7.06-.23-13.95-.67a494.56,494.56,0,0,1-.46-55.65q.75-13.95,1-27.23t.16-26.17q1.18-1.35,5.4-1.2c1.39,0,2.74,0,4-.08s2.49-.12,3.6-.22c.49,1.5,1,3.07,1.42,4.72s1,3.33,1.58,5a92.56,92.56,0,0,0,3.6-8.7c1.09-3.1,2.25-6.13,3.44-9.08A67.59,67.59,0,0,1,819,41a25.58,25.58,0,0,1,5.47-6.68,19.23,19.23,0,0,1,7.72-4A25.81,25.81,0,0,1,843,30.2a43.67,43.67,0,0,1,11.69,10.87A89.46,89.46,0,0,1,865,57.65a100.77,100.77,0,0,1,6.9,18.75,47.71,47.71,0,0,1,1.57,17.4q-5.25.75-10.8,1.42t-11.39,1.43q-12,1.2-18.31-.6-2.85-5.85-4.5-16.5-.75-5.25-1.27-9.15c-.35-2.6-.73-4.75-1.12-6.45-.51-.1-1-.18-1.5-.23s-1-.07-1.65-.07q-5.11,7.5-4.8,21.75.13,7.2.3,13.2t.29,11q9.47-.3,19-.83t19.13-1V139.1q-9-.6-17.63-1.13t-17.32-1.12a44.76,44.76,0,0,0,1,8.17,99.91,99.91,0,0,1,1.5,10.65,30.67,30.67,0,0,1-.46,9.3c-.59,2.65-2.15,4-4.64,4C814.48,168.85,809.72,168.72,805,168.57Z"/><path class="cls-4" d="M921.88,165.05q-4.67-7.65-8.63-14.55T906,137a8.13,8.13,0,0,0-2.39-.6c.19,4.5.32,8.12.37,10.87s.12,4.78.22,6.08.28,3,.53,5.1.57,4.7,1,7.8a44.61,44.61,0,0,1-14.25,1.35q-3.75-.3-6.82-.45c-2.05-.1-3.93-.15-5.63-.15q-.3-22.8-.3-45.3V76.1c1.21-1.2,4-1.6,8.41-1.2q.88,2.55,1.94,5.17t2.25,5.18q3-9.45,6.23-17.48t6.67-15.07q6.9-14.1,31.21-14.1Q951.71,46,955,59.15a48.7,48.7,0,0,1-1,27.45,91.72,91.72,0,0,1-14.55,27.6,101.47,101.47,0,0,1-10,11.77,89.59,89.59,0,0,1-10.12,8.78,42.68,42.68,0,0,0,2.32,7.95,82.63,82.63,0,0,0,4.57,9.75q6,10.8,15.16,14.55a9.35,9.35,0,0,1,2.54-1.05,32.36,32.36,0,0,0-3.3-14.4l-3-6.53q-1.35-2.93-2.54-5,6.75-5,13.5-10.13a68.78,68.78,0,0,1,15.3-8.77q4.5,5.85,7.34,17.25A61.68,61.68,0,0,1,973,160a36.76,36.76,0,0,1-6.44,18.6q-5.72,7.95-17.7,7.95Q931.17,179.9,921.88,165.05Zm-6.3-54.45a73.79,73.79,0,0,0,3.89-18q.45-5.1.53-9.9t-.23-9.6q-.3-4.8-.6-8.1c-.2-2.2-.4-4-.59-5.4a15,15,0,0,0-1.81-.23c-.7,0-1.5-.07-2.39-.07a53.22,53.22,0,0,0-5.93,12,115.54,115.54,0,0,0-4.57,17q-3.92,19.35,3,31.35Q912.57,118.55,915.58,110.6Z"/><path class="cls-4" d="M1015,166.7q-15.08-1-30.38-1.95.9-18.15,1.28-36.75t.22-36.75l-3.22-.3a24.08,24.08,0,0,1-2.93-.45q-.3-3.9-.37-8.78t-.23-10.57q-.3-11.55,1.35-17.4,17.7-.45,35.48-.75l35.92-.6V91.25q-12.75-.45-25.65-1.28a115.58,115.58,0,0,0-24.15.83,51.66,51.66,0,0,0-.3,5.7v5.85q1.35,1.35,12.6,2.4,5.7.6,9.75.82t6.3.38a2.31,2.31,0,0,1,.53,1.5,13.39,13.39,0,0,1-.08,2.4,15.19,15.19,0,0,1-.52,2.62,13.33,13.33,0,0,1-.83,2.18q-14.25,1.65-27.45,2.7-.3,3.3-.3,6.6v6.6a5.64,5.64,0,0,0,1,.22c.35,0,1,.1,2,.15s2.45.08,4.35.08,4.75-.05,8.25-.15l13.28-.38,19.72-.52q-.3,9.9-.45,19.5t-.15,19.2c-1.1,0-2,0-2.77.07a14.83,14.83,0,0,0-1.88.23Q1030,167.75,1015,166.7Z"/><path class="cls-4" d="M1092.05,166.7q-15.08-1-30.38-1.95.9-18.15,1.28-36.75t.22-36.75L1060,91a24.08,24.08,0,0,1-2.93-.45q-.3-3.9-.37-8.78t-.23-10.57q-.3-11.55,1.35-17.4,17.7-.45,35.48-.75l35.92-.6V91.25q-12.75-.45-25.65-1.28a115.58,115.58,0,0,0-24.15.83,51.66,51.66,0,0,0-.3,5.7v5.85q1.35,1.35,12.6,2.4,5.7.6,9.75.82t6.3.38a2.31,2.31,0,0,1,.53,1.5,13.39,13.39,0,0,1-.08,2.4,15.19,15.19,0,0,1-.52,2.62,13.33,13.33,0,0,1-.83,2.18q-14.25,1.65-27.45,2.7-.3,3.3-.3,6.6v6.6a5.64,5.64,0,0,0,1,.22c.35,0,1,.1,2,.15s2.45.08,4.35.08,4.75-.05,8.25-.15l13.28-.38,19.72-.52q-.3,9.9-.45,19.5t-.15,19.2c-1.1,0-2,0-2.77.07a14.83,14.83,0,0,0-1.88.23Q1107.12,167.75,1092.05,166.7Z"/><path class="cls-4" d="M974.67,357.05q-2.55-4.8-5-9.75t-4.88-9.9q-.6,2.55-1.27,5.25t-1.43,5.25c-2-.2-3.72-.35-5.17-.45s-2.68-.15-3.68-.15q-.75-12.6-2.1-26.18t-3.45-28.42q-4-29.85-1.65-52a60.25,60.25,0,0,1,31.8-7.35q17.85.75,29.25,7.35,11.55,6.45,12.75,17.7,1.2,11.1-17.55,23.55a8.56,8.56,0,0,0-2.85.6c.7,1.7,1.73,2.65,3.08,2.85a59,59,0,0,0,5.92.45q12.15,5.4,16.2,18.9a59.85,59.85,0,0,1,1.65,27.6,61.6,61.6,0,0,1-10.65,25.5q-7.95,11.25-20.55,12.9Q980.07,367,974.67,357.05Zm8.7-78.75q.9-.3,2.1-.6a35.86,35.86,0,0,0,2.4-17.4q-.9-9.15-3.45-14.55t-5.7-3.45q-3.15,1.95-4.2,15.75.3,1.5.6,4.05t.6,6.3q.9,7.35,6,10.5Q982.47,278.6,983.37,278.3Zm10.5,67.05q1.95-10.35,2.25-14.25-2.7-31.35-7.65-35t-7.8,6.3q-2.85,9.9-1.8,26.25,1.05,16.05,10.35,24Q991.77,355.55,993.87,345.35Z"/><path class="cls-4" d="M1076.22,345.05q-4.65-7.65-8.62-14.55t-7.28-13.5a8.1,8.1,0,0,0-2.4-.6q.3,6.75.38,10.87t.22,6.08c.1,1.3.28,3,.53,5.1s.57,4.7,1,7.8a44.61,44.61,0,0,1-14.25,1.35q-3.75-.3-6.82-.45c-2-.1-3.93-.15-5.63-.15q-.3-22.8-.3-45.3V256.1q1.8-1.8,8.4-1.2.9,2.55,1.95,5.17t2.25,5.18q3-9.45,6.23-17.48t6.67-15.07q6.9-14.1,31.2-14.1,16.35,7.35,19.65,20.55a48.7,48.7,0,0,1-1,27.45,91.72,91.72,0,0,1-14.55,27.6,101.47,101.47,0,0,1-10,11.77,88.79,88.79,0,0,1-10.13,8.78,43.57,43.57,0,0,0,2.33,7.95,82.63,82.63,0,0,0,4.57,9.75q6,10.8,15.15,14.55a9.62,9.62,0,0,1,2.55-1.05,32.36,32.36,0,0,0-3.3-14.4l-3-6.53q-1.35-2.92-2.55-5,6.75-5,13.5-10.13a69,69,0,0,1,15.3-8.77q4.5,5.85,7.35,17.25a61.68,61.68,0,0,1,1.8,21.6,36.68,36.68,0,0,1-6.45,18.6q-5.7,7.95-17.7,7.95Q1085.52,359.9,1076.22,345.05Zm-6.3-54.45a73.79,73.79,0,0,0,3.9-18q.45-5.1.53-9.9t-.23-9.6q-.3-4.8-.6-8.1t-.6-5.4a14.57,14.57,0,0,0-1.8-.23c-.7-.05-1.5-.07-2.4-.07a53.65,53.65,0,0,0-5.92,12,116.73,116.73,0,0,0-4.58,16.95q-3.9,19.35,3,31.35Q1066.92,298.55,1069.92,290.6Z"/><path class="cls-4" d="M1136.82,334q.45-5.1,1.13-10.5t1.72-11.4q1-6,2-11.93t2-11.62q1.2-5.7,2-10.28t1-7.87q4.8.3,9.75.75l10,.9q2.1,17.7,3.45,36.37t3.15,37.73q-4.35,2.25-18.15,1.8t-17.25-.45Q1136.07,344.15,1136.82,334Zm5.4-87q-.75-7.35-1.65-14.55h33.9q-1,7.2-2.1,14.47t-2.1,14.63q-6.75,0-13.2.22t-12.9.23Q1143,254.3,1142.22,247Z"/><path class="cls-4" d="M1201.77,325.85q1.05-11.4,2.7-22.8t2.63-22.5q1-11.1,1.57-22.05-3.9,0-8.17.22t-8.78.53q-4.5.3-8.32.37a58,58,0,0,1-6.83-.22V245.9q0-6.75.3-13.5,11.7.3,23.4.52t23.85.53q0,.75.15,2.4t.45,4.2q2.4,1.5,15.9-.45l11.48-1.8q4.73-.75,7.42-1.05a7.64,7.64,0,0,1,.45,2.7c.1,1.5.17,3.32.23,5.47s.07,4.53.07,7.13v7.35q0,3.45-.07,6.3c-.06,1.9-.08,3.25-.08,4.05q-8.25-.6-16.27-1.13t-16.13-1q.3,9.9,1.35,19.8t3,19.8q2,9.9,3.15,20.25t1.5,21.15q-9.15,0-18.37.07t-18.23.23Q1200.72,337.25,1201.77,325.85Z"/><path class="cls-4" d="M1264.32,348.65q1.8-27.6,4-54.68t4.43-54.37l13.65-1.8q6.9-.9,14.25-1.8,2.1,5.25,4.65,10.72t5.4,11.33A85.7,85.7,0,0,0,1327,280q2.25-2.25,2.55-10.2c.1-2.6.12-5.33.08-8.18s-.18-5.82-.38-8.92-.4-6.1-.6-9-.4-5.75-.6-8.55a59.75,59.75,0,0,1-.15-11.1q9.9.6,19.5,1.12t19.35,1.13q.45,7.2-.45,25.05-.45,9-1,18.07t-1.35,18.53q-.75,9.45-1.42,17.7t-1.43,15.6q-1.35,14.85-2,16.05-8.25.45-16.2,1.35a62.19,62.19,0,0,1-14.25.15c-.5-1.3-1.23-3.25-2.17-5.85s-2.18-6-3.68-10.2-2.92-8.43-4.57-12.68-3.33-8.62-5-13.12-3.37-8.93-5-13-3.28-7.92-4.88-11.62q-4.8-11.1-6.6-12.15-1,1.05-1,13.2.15,6.15.23,12.82t.37,14.33q.3,7.65.52,14.77t.53,14.18q.3,6.9.45,11.47t.3,6.68q-15.6.75-30.6,1.35A16,16,0,0,0,1264.32,348.65Z"/><path class="cls-4" d="M1408.54,346.7q-15.07-1.05-30.37-1.95.9-18.15,1.27-36.75t.23-36.75l-3.23-.3a23.91,23.91,0,0,1-2.92-.45q-.3-3.9-.38-8.78t-.22-10.57q-.3-11.55,1.35-17.4,17.7-.45,35.47-.75l35.93-.6v38.85q-12.75-.45-25.65-1.28a115.58,115.58,0,0,0-24.15.83,51.66,51.66,0,0,0-.3,5.7v5.85q1.35,1.35,12.6,2.4,5.7.6,9.75.82t6.3.38a2.31,2.31,0,0,1,.52,1.5,13.31,13.31,0,0,1-.07,2.4,15.21,15.21,0,0,1-.53,2.62,13.37,13.37,0,0,1-.82,2.18q-14.25,1.65-27.45,2.7-.3,3.3-.3,6.6v6.6a5.52,5.52,0,0,0,1,.22c.35.05,1,.1,2,.15s2.45.08,4.35.08,4.75-.05,8.25-.15l13.27-.38,19.73-.52q-.3,9.9-.45,19.5t-.15,19.2c-1.1,0-2,0-2.78.07a14.64,14.64,0,0,0-1.87.23Q1423.62,347.75,1408.54,346.7Z"/><path class="cls-4" d="M1459.62,333.65q-9.6-13-7.5-21.45c1.7-.3,3.32-.55,4.87-.75s3-.35,4.28-.45l7.8-.53,15.3-1c.2.8.45,1.92.75,3.37s.6,3.18.9,5.18a44.83,44.83,0,0,0,2.85,11.1q2,5,5.7,6.3,3.75,1.05,10.2-6.3,2.25-9.3-5.1-20.25a163.27,163.27,0,0,0-17.4-22.35q-5.1-5.7-10.13-11.1t-9.82-10.65q-9.9-10.8-12.3-18.6,18.6-14.55,26.25-13.5t11.85,10.2q2.1,4.5,4.2,9.9t4.2,11.7a37.75,37.75,0,0,0,16.2,20.25q1.8-2.7,2.4-8.63a124.37,124.37,0,0,0,.6-12.52q0-6.6-.23-12.53t-.22-8.62c1.9,0,3.8,0,5.7.07s3.85.13,5.85.23q0,6.3-.23,13.8t-.52,16.5a161.38,161.38,0,0,1-5,34.8,75.68,75.68,0,0,1-13.8,28.65q-9.15,11.85-26.7,11.85Q1469.22,346.85,1459.62,333.65Z"/><rect class="cls-5" x="836" y="-5" width="251" height="1919" transform="translate(1916 -7) rotate(90)"/><rect class="cls-6" x="1159" width="969" height="829"/><path class="cls-7" d="M662.44,1044.81l28,3.4V260.35l-30.3-3.4Q661.27,650.88,662.44,1044.81Z"/><path class="cls-7" d="M566.87,1033.74l28,3.4V249.27l-30.3-3.4Q565.71,639.82,566.87,1033.74Z"/><path class="cls-7" d="M478.3,1022.12l28,3.4V237.65l-30.3-3.4Q477.14,628.19,478.3,1022.12Z"/><path class="cls-7" d="M389.73,1006.86l28,3.4V222.4L387.4,219Q388.57,612.93,389.73,1006.86Z"/><path class="cls-8" d="M695.21,972.1c-27.55,15.23-45.51,14.68-57,11-15.64-5-20.74-16.19-36.74-16.48-13.11-.24-14.38,7.19-33.84,12.82-22,6.37-42.56,3.28-52.21,1.83-23.18-3.48-26-9.87-39.64-7.32-15.18,2.82-17.66,11.79-30.94,13.73-8.34,1.21-21.05-.33-38.68-14.65,9.36-17.25,19.71-43.42,13.79-72.33-5.59-27.28-20.32-30.93-25.39-59.51-5.3-29.84,8.67-37.7,9.67-79.65.64-27-5.22-20.27-7.74-60.42,0,0-4.58-72.69,20.78-110.33,2.12-3.15,4.41-6.18,4.41-6.18h0c50.84-66.53,124-66.68,130-66.58,1.79,0,4.59.07,8.21.3,34.14,2.13,74.25,20.12,101.31,49.16,35.26,37.84,38,83.6,39.85,115.32,2,33.05-5.26,32.75-3.86,82.4,1.33,47.7,8.13,52.83,2.9,79.66-6.58,33.71-20.35,41.16-21.27,69.58C678,939,687.45,959.24,695.21,972.1Z"/><path class="cls-9" d="M440.27,988.49c-10.56,0-22.13-5-34.46-15.08l-.33-.26.2-.37c13.72-25.29,18.35-49.51,13.74-72-2.7-13.18-7.64-20.95-12.41-28.46-5.09-8-10.36-16.29-13-31.06-2.84-16-.24-25.52,3.05-37.59,2.88-10.58,6.14-22.57,6.61-42.16.32-13.35-1-18.5-2.64-25-1.7-6.73-3.83-15.12-5.1-35.35,0-.73-4.3-73.29,20.86-110.64,2.11-3.12,4.41-6.17,4.43-6.2,50.58-66.19,122.36-66.91,130.41-66.79,1.72,0,4.59.07,8.23.3,35.92,2.25,75.82,21.61,101.65,49.32,35.37,38,38.15,84.7,40,115.63a146.53,146.53,0,0,1-1.48,33.3c-1.46,10.72-3.12,22.88-2.38,49.12a404.47,404.47,0,0,0,3.28,42.31c1.65,13.61,2.66,21.83-.39,37.45s-7.68,25.72-11.77,34.63c-4.83,10.55-9,19.66-9.49,34.87-.62,19.06,4.88,38.37,16.36,57.41l.27.44-.46.25c-22.36,12.36-41.68,16.07-57.43,11-6.67-2.13-11.36-5.32-15.9-8.41-6-4.06-11.6-7.88-20.7-8-6.95-.13-10.48,1.93-15.36,4.77a73.69,73.69,0,0,1-18.33,8c-22.12,6.4-42.59,3.32-52.43,1.84A115.45,115.45,0,0,1,494,976.51c-6.34-2.1-10.54-3.49-18.12-2.08s-11.95,4.37-16.16,7.24-8.14,5.52-14.8,6.49A31.93,31.93,0,0,1,440.27,988.49Zm-33.51-15.6c13.81,11.14,26.58,16,38,14.28,6.44-.93,10.3-3.56,14.38-6.33,4.3-2.92,8.75-6,16.54-7.4s12.13,0,18.63,2.12a114.24,114.24,0,0,0,21.18,5.21c9.77,1.46,30.09,4.52,52-1.82A72.69,72.69,0,0,0,585.56,971c5-2.92,8.66-5,15.88-4.9,9.4.17,15.15,4.08,21.24,8.22,4.48,3,9.12,6.2,15.64,8.28,15.37,4.92,34.28,1.32,56.2-10.69-11.4-19.06-16.86-38.41-16.24-57.51.5-15.41,4.71-24.6,9.59-35.25,4.06-8.87,8.66-18.92,11.68-34.41s2-23.63.38-37.14a408.79,408.79,0,0,1-3.28-42.4c-.74-26.32.92-38.52,2.39-49.29a146.09,146.09,0,0,0,1.47-33.1c-1.82-30.78-4.58-77.3-39.72-115-25.66-27.53-65.29-46.77-101-49-3.62-.23-6.48-.27-8.19-.3-3.62-.07-23,0-48,8.28A166.25,166.25,0,0,0,422,584.9s-2.31,3.06-4.4,6.16c-25,37.07-20.73,109.29-20.69,110,1.27,20.15,3.38,28.48,5.07,35.18s3,11.81,2.67,25.29c-.47,19.72-3.75,31.77-6.65,42.4-3.25,12-5.82,21.4-3,37.16,2.59,14.58,7.8,22.77,12.84,30.7,4.83,7.58,9.81,15.43,12.55,28.79C425,923.2,420.44,947.52,406.76,972.89Z"/><path class="cls-10" d="M742.65,1013.12c4.67-10.89-2.47-19.78-26-76.89-17.87-43.39-19.8-53-33.63-79.63-14.39-27.75-21.59-41.62-31.18-47.93-28.25-18.58-54.64,6.63-69.21-12.5-8-10.52-1.69-20.3-14.24-52.32-5-12.83-9.77-24.57-16.53-24.84-9.54-.4-17.3,22.27-19.37,28.33-8.72,25.46-2,36.73-8.91,47.4-10.33,16-31.69.31-58.43,6.94-32.28,8-51.34,46.22-89.45,122.65-27.92,56-26.21,68.72-22.93,76,7.25,16.06,28,18.21,64.22,22,21.23,2.2,66,4.54,67.27-4.58,1.24-9-40.17-23.78-42.81-24.71a176.4,176.4,0,0,0-46.5-9.7c8.76-18.17,18.85-37.35,30.44-57.12a755.7,755.7,0,0,1,48.17-72.31,119.19,119.19,0,0,0-11.14,61.3c3.28,38.56,24.18,61.55,29.15,66.75a173.9,173.9,0,0,1,3.39,48.61c-2.79,37.74-16.62,48.9-12.23,63.16,11.07,35.95,120.51,34.43,130.27-.54,3.44-12.33-7.81-20.58-11.93-51-3.25-23.95.17-45,4.08-60.2,13.28-16.25,26.65-38.71,28.55-66.75,2.27-33.44-12.79-59.85-10.31-61.3,3-1.72,20.62,37.64,46.67,84,12.72,22.63,23.86,40.59,31.32,52.27-9.81,2.14-24.17,5.62-41.3,11.08-25,8-50.23,16-49.73,22,.64,7.8,43.83,8.24,66.55,7.26C715.51,1028.84,736.27,1028,742.65,1013.12Z"/><path class="cls-11" d="M633.83,914.69c1.65-24.39-5.91-45-9.16-55a4.11,4.11,0,0,1-3.78-2.57c-8-16.83-13.29-35.62-13.08-54.39a63.71,63.71,0,0,1-8.93.59c.65,7.36,3,14.36,4.52,21.6,1.81,8.62,1.61,17.51,3.43,26.14a5.13,5.13,0,0,1-.1,2.63,5,5,0,0,1-3.39,4.62c-18.52,6.79-39.7,5-59.1,4.48-16.9-.41-35.43-1.63-50.29-10.51l-.14-.09a5.26,5.26,0,0,1-5.1-4.78c-.75-8.06,1.08-16.22,2.45-24.13,1.22-7,3.56-16.24.45-23.07v0a100.49,100.49,0,0,0-13-.69c5.17,15.68,5.23,36.28-1,51.45a5.24,5.24,0,0,1-4.22,3.26,3.87,3.87,0,0,1-.2,1.16q-.83,2.49-1.66,5a5.33,5.33,0,0,1-1.85,2.61,119.75,119.75,0,0,0-7.06,51.71c3.28,38.57,24.17,61.56,29.14,66.75a173.91,173.91,0,0,1,3.4,48.61c-2.79,37.74-16.62,48.91-12.24,63.16,11.08,36,120.51,34.44,130.28-.53,3.44-12.33-7.81-20.59-11.94-51-3.24-24,.17-45.05,4.09-60.21C618.55,965.2,631.93,942.73,633.83,914.69Z"/><path class="cls-12" d="M662,592.13c41.32,64.57-12.94,140-16,144.06-33.25,44.69-82.72,57-97.18,60.11-13.57-3.43-66.86-18.51-99-68.89-4.7-7.39-49.34-80-8.54-139.4,32.45-47.22,93.91-49.67,106.77-49.81C556.44,538.1,627.62,538.38,662,592.13Z"/><path class="cls-13" d="M587.1,751.38a20.42,20.42,0,0,0-8-3.84c-12.14-2.49-16.63,10.32-29.78,10.58-12.2.25-18.14-10.59-31.77-7.68-2.85.61-4.51,1.49-4.76,1.09-.86-1.43,16.81-18.86,36.53-19.06C570,732.27,587.36,751,587.1,751.38Z"/><path class="cls-14" d="M587.1,751.38c-1.07,1.51-13.62,18.56-36.66,18.83-23.61.28-36.7-17.33-37.67-18.68a20.35,20.35,0,0,1,9.22-5.67c10-2.72,14.7,5.32,27.21,5.06,10.37-.21,12.56-5.85,22.84-5.06A31.26,31.26,0,0,1,587.1,751.38Z"/><path class="cls-14" d="M559.37,719.74c-2-.11-5.68.31-10.42,4.4-4.25-4.22-7.6-4.9-9.76-4.81-5.45.21-11,5.8-13.87,9.24a70.42,70.42,0,0,0-12.55,23,29.74,29.74,0,0,1,16.75-12.1,24.54,24.54,0,0,1,12.56-.54c3.84,1,4.84,2.55,8.24,2.48s4-1.65,7.68-2.47c4.29-1,7.9,0,11.84,1.1a36.72,36.72,0,0,1,17.26,11.38,61.63,61.63,0,0,0-12-21.51C573.18,727.71,566,720.1,559.37,719.74Z"/><path class="cls-15" d="M536.51,702.08a9.92,9.92,0,0,0,4.31,6.34c1.56.91,3.73,1,8,1,5.35,0,8.06,0,9.79-1.23.76-.54,2.69-2.18,3.32-6.08Z"/><line class="cls-1" x1="536.51" y1="702.08" x2="538.25" y2="696.06"/><path class="cls-11" d="M523.51,677.46l-17.93.39-1.15,0-1.38,0c-2,0-3.81.08-6.14.15l-3.47.11c-10.43.36-11.47.74-16.85.57-1.92-.06-6.36-.19-9.34-.17-2.39,0-3.3.07-6,0l-1.62-.07c-1.43-.07-18.67-4.51-20.83-15.61-1.62-8.35,6.31-15.38,13-18.7,15.51-7.68,37.62-1.72,49.52,4.57C519.91,658.49,523,674,523.51,677.46Z"/><path class="cls-16" d="M497.21,663.48a30.11,30.11,0,0,1-3.77,14.46c-10.43.49-11.47,1-16.85.77-1.92-.09-6.36-.26-9.34-.24-2.39,0-3.3.11-6,0l-1.62-.09a28,28,0,0,1-4-14.87c.25-11.72,8.39-25.17,20.8-25.17C487.9,638.31,497.21,649.58,497.21,663.48Z"/><ellipse class="cls-13" cx="476.58" cy="661.93" rx="12.09" ry="13.85"/><path class="cls-13" d="M476.58,676.28c-6.94,0-12.59-6.44-12.59-14.35s5.65-14.34,12.59-14.34,12.59,6.43,12.59,14.34S483.52,676.28,476.58,676.28Zm0-27.69c-6.39,0-11.59,6-11.59,13.34s5.2,13.35,11.59,13.35,11.59-6,11.59-13.35S483,648.59,476.58,648.59Z"/><ellipse class="cls-11" cx="485.45" cy="668.67" rx="4.39" ry="5.03"/><path class="cls-11" d="M485.45,674.2c-2.7,0-4.89-2.48-4.89-5.53s2.19-5.52,4.89-5.52,4.89,2.48,4.89,5.52S488.15,674.2,485.45,674.2Zm0-10.05c-2.14,0-3.89,2-3.89,4.52s1.75,4.53,3.89,4.53,3.89-2,3.89-4.53S487.59,664.15,485.45,664.15Z"/><ellipse class="cls-11" cx="465.96" cy="663.55" rx="1.61" ry="1.62"/><path class="cls-11" d="M466,665.67a2.12,2.12,0,1,1,2.11-2.12A2.12,2.12,0,0,1,466,665.67Zm0-3.24a1.12,1.12,0,1,0,1.11,1.12A1.12,1.12,0,0,0,466,662.43Z"/><path class="cls-17" d="M522.7,672.17c-13.2-10.55-26.47-15.51-39-17.08h-.14a91.81,91.81,0,0,0-31.35,1.65,79,79,0,0,0-13.35,4.4,14.64,14.64,0,0,1,1.45-9.07c3.23-6.32,10.2-9.45,12.73-10.59,14.22-6.4,34.85-4.16,48.49,2.84A40.54,40.54,0,0,1,518.91,661,31.35,31.35,0,0,1,522.7,672.17Z"/><path class="cls-13" d="M521.72,672.57a75.76,75.76,0,0,0-38.37-17l.14-1a76.89,76.89,0,0,1,38.88,17.2Z"/><path class="cls-17" d="M451.73,656.74l-1,.33c-6.57,2.15-10.44,4.93-11.87,3.81A82.77,82.77,0,0,1,451.73,656.74Z"/><path class="cls-13" d="M439.68,661.64a1.8,1.8,0,0,1-1.16-.36l-.68-.53.79-.33a82.12,82.12,0,0,1,13-4.16l.26,1-1,.32c-2.53.83-4.68,1.76-6.4,2.51C442.32,661,440.79,661.64,439.68,661.64Z"/><path class="cls-13" d="M451.85,657.23l-.25-1a82.34,82.34,0,0,1,31.75-1.67l.14,0-.19,1h-.09A81.3,81.3,0,0,0,451.85,657.23Z"/><path class="cls-13" d="M445.27,658.37,438.09,661a17,17,0,0,1-4-5.43,13.06,13.06,0,0,1-1-7.47,19.48,19.48,0,0,0,5.8,7A20.32,20.32,0,0,0,445.27,658.37Z"/><path class="cls-13" d="M452.25,656.2l-6.89,2.5a9.93,9.93,0,0,1-3.27-4,8.72,8.72,0,0,1-.33-5.82,12.38,12.38,0,0,0,4.79,5.18A16.85,16.85,0,0,0,452.25,656.2Z"/><path class="cls-13" d="M521.85,619.39c6-5.57,8.24-7.87,4.91-5.11l-5.12,2.81c-15.59,8.54-27.47,6.35-53,10.58-15.12,2.51-29.47,6.35-29.31,7.19s20.49-2.8,47.77-5.81a127,127,0,0,0,17.5-3.22c5.44-1.39,9.25-2.39,13.61-4.6Z"/><path class="cls-13" d="M575.05,619.39c-6-5.57-8.24-7.87-4.92-5.11l5.13,2.81c15.58,8.54,27.46,6.35,53,10.58,15.12,2.51,29.46,6.35,29.3,7.19s-20.49-2.8-47.77-5.81a127.27,127.27,0,0,1-17.49-3.22c-5.45-1.39-9.25-2.39-13.61-4.6Z"/><path class="cls-11" d="M576,676l17.93.4h1.15l1.39,0c2,0,3.8.08,6.13.15l3.47.1c10.43.37,11.47.75,16.85.58,1.92-.06,6.36-.19,9.34-.18,2.39,0,3.3.08,6,0l1.63-.07c1.42-.08,18.66-4.51,20.82-15.61,1.62-8.35-6.31-15.38-13-18.71-15.5-7.67-37.62-1.71-49.52,4.57C579.58,657,576.53,672.51,576,676Z"/><path class="cls-16" d="M602.27,662A30.11,30.11,0,0,0,606,676.46c10.43.48,11.47,1,16.85.76,1.92-.08,6.36-.25,9.34-.23,2.39,0,3.3.1,6,0l1.63-.1a28,28,0,0,0,4-14.86c-.25-11.72-8.39-25.18-20.8-25.18C611.58,636.82,602.27,648.1,602.27,662Z"/><ellipse class="cls-13" cx="622.9" cy="660.45" rx="12.09" ry="13.85"/><path class="cls-13" d="M622.9,674.8c-6.94,0-12.59-6.44-12.59-14.35S616,646.1,622.9,646.1s12.6,6.44,12.6,14.35S629.85,674.8,622.9,674.8Zm0-27.7c-6.39,0-11.59,6-11.59,13.35s5.2,13.35,11.59,13.35,11.6-6,11.6-13.35S629.29,647.1,622.9,647.1Z"/><ellipse class="cls-11" cx="614.03" cy="667.19" rx="4.39" ry="5.03"/><path class="cls-11" d="M614,672.72c-2.7,0-4.89-2.48-4.89-5.53s2.19-5.53,4.89-5.53,4.89,2.48,4.89,5.53S616.73,672.72,614,672.72Zm0-10.06c-2.14,0-3.89,2-3.89,4.53s1.75,4.53,3.89,4.53,3.89-2,3.89-4.53S616.18,662.66,614,662.66Z"/><ellipse class="cls-11" cx="633.52" cy="662.07" rx="1.61" ry="1.62"/><path class="cls-11" d="M633.52,664.19a2.12,2.12,0,1,1,2.11-2.12A2.12,2.12,0,0,1,633.52,664.19Zm0-3.24a1.12,1.12,0,1,0,1.11,1.12A1.12,1.12,0,0,0,633.52,661Z"/><path class="cls-17" d="M576.78,670.69c13.2-10.56,26.47-15.51,39-17.08l.14,0a92.18,92.18,0,0,1,31.36,1.66,79.16,79.16,0,0,1,13.34,4.4,14.64,14.64,0,0,0-1.45-9.07c-3.23-6.32-10.2-9.46-12.73-10.6-14.22-6.39-34.85-4.15-48.49,2.85a40.49,40.49,0,0,0-17.42,16.71A31.55,31.55,0,0,0,576.78,670.69Z"/><path class="cls-13" d="M577.77,671.09l-.65-.76A76.71,76.71,0,0,1,616,653.12l.14,1A75.75,75.75,0,0,0,577.77,671.09Z"/><path class="cls-17" d="M647.76,655.26c.34.11.69.21,1,.33,6.57,2.15,10.44,4.93,11.87,3.81A81.83,81.83,0,0,0,647.76,655.26Z"/><path class="cls-13" d="M659.8,660.16c-1.1,0-2.63-.67-4.77-1.59-1.72-.75-3.87-1.68-6.39-2.51l-1-.32.26-1a82.83,82.83,0,0,1,13,4.17l.79.33-.68.52A1.76,1.76,0,0,1,659.8,660.16Z"/><path class="cls-13" d="M647.63,655.74a81.48,81.48,0,0,0-31.36-1.64l-.19-.48.09.49-.19-1,.22,0a82.44,82.44,0,0,1,31.68,1.67Z"/><path class="cls-13" d="M654.21,656.89l7.18,2.62a17.07,17.07,0,0,0,4-5.44,13.05,13.05,0,0,0,1-7.47,19.41,19.41,0,0,1-5.8,7A20.22,20.22,0,0,1,654.21,656.89Z"/><path class="cls-13" d="M647.24,654.71l6.88,2.51a9.92,9.92,0,0,0,3.27-4,8.72,8.72,0,0,0,.33-5.82,12.38,12.38,0,0,1-4.79,5.18A16.83,16.83,0,0,1,647.24,654.71Z"/><g class="cls-18"><path class="cls-19" d="M651,675.46c-.32-2.58-8.25-5.59-15.08-4.48-4.11.67-6.73,2.66-9.52,1.48-1.72-.73-2-2-4.18-2.45a8.34,8.34,0,0,0-4.37.48c-1.93.71-1.78,1.44-3.48,2.18-2.05.89-3,.12-6.27.65-.94.16-5.25.86-5.47,2.3-.18,1.2,2.52,2.55,4.46,3.13,3,.88,3.92-.09,6.67.82s2.5,2.11,4.62,2.4c2.65.36,3.59-1.47,6.59-1.13,1.67.19,1.53.77,4,1.34,2.87.66,3.86.06,5,.68,1.87,1,1.34,3.83,1.23,6.07-.3,6.28,2.39,13.27,4.66,13.47s6.49-5.87,6.27-12c-.15-4.14-2.26-5.81-.88-8.91C646.88,677.78,651.19,677.42,651,675.46Z"/><path class="cls-20" d="M650,675.43c-.29-2.44-7.5-5.27-13.7-4.22-3.74.63-6.12,2.51-8.65,1.39-1.57-.69-1.81-1.9-3.81-2.3a7.45,7.45,0,0,0-4,.44c-1.75.67-1.62,1.36-3.16,2.06-1.87.83-2.71.11-5.71.62-.85.14-4.77.8-5,2.16-.17,1.13,2.28,2.4,4,2.94,2.69.83,3.57-.08,6.07.78s2.28,2,4.2,2.26c2.41.34,3.27-1.38,6-1.06,1.52.18,1.4.73,3.64,1.26,2.61.62,3.52,0,4.55.64,1.7,1,1.22,3.61,1.12,5.72-.28,5.92,2.17,12.5,4.24,12.69s5.9-5.53,5.7-11.3c-.14-3.9-2.06-5.47-.8-8.39C646.34,677.61,650.26,677.27,650,675.43Z"/></g><g class="cls-18"><path class="cls-19" d="M481.94,675.12a12.68,12.68,0,0,0-7.27-2.6c-5.91.1-7.66,5.65-12.13,5.2-4.11-.41-4.53-5.29-8-5.52-5.69-.38-13.13,12.44-10.05,15.92,2.14,2.41,7.23-2.09,16.28-.33,8.09,1.58,9.2,6.17,15.24,5.85,5.51-.3,11.8-4.52,12.06-9.5C488.36,679.41,483.05,675.86,481.94,675.12Z"/><path class="cls-20" d="M480.47,675.77a11.32,11.32,0,0,0-6.6-2.38c-5.37.09-6.95,5.17-11,4.76-3.74-.37-4.12-4.85-7.24-5.06-5.16-.35-11.93,11.41-9.12,14.6,1.94,2.21,6.56-1.92,14.78-.3,7.35,1.44,8.36,5.66,13.85,5.36,5-.27,10.72-4.14,10.95-8.71C486.3,679.7,481.48,676.45,480.47,675.77Z"/></g><g class="cls-18"><path class="cls-19" d="M472.16,734.23c.78,5.32-2.73,12.8-8.64,13.5-4.91.58-9.85-3.7-11.4-7.9-.69-1.85-.85-4.05,2.75-13,2.62-6.5,6.5-16.16,8.65-15.74,1.6.32-.42,5.73,2.88,13.17C468.9,729.93,471.57,730.21,472.16,734.23Z"/></g><g class="cls-18"><path class="cls-20" d="M470.87,733.88c.68,4.94-2.38,11.87-7.55,12.52-4.28.54-8.6-3.43-9.95-7.32-.6-1.72-.74-3.76,2.4-12.05,2.29-6,5.68-15,7.55-14.6,1.4.3-.36,5.32,2.52,12.22C468,729.89,470.36,730.16,470.87,733.88Z"/></g><ellipse class="cls-8" cx="552.13" cy="547.39" rx="71.07" ry="24.7"/><path class="cls-8" d="M674.72,703.94c-8.72-47.35,13.09-54,3.47-90-11.15-41.82-47.79-60.21-55-62.15a25.78,25.78,0,0,0-2.52-.55c-3.55-.26-7.45,1.83-23.59,5.94-12,3.05-11.72,2.38-22.61,5.29-16.73,4.47-27,7.22-27.11,9.62-.12,3.21,18,8.12,38.43,3.71,13.32-2.87,19-7.84,26.8-8.72.63-.07,1.27-.11,1.9-.13a26.42,26.42,0,0,1,5.59.55c2.36.52,31.18,15.56,37.39,54.15,4.25,26.43-7.46,30.58-5.63,68.76,1.11,23.23,5.45,21.63,3.67,35.37-3.6,27.8-21.33,34.17-23.54,60.29-1.46,17.17,5.92,17.79,6.4,36,1.06,40.29-34,68-31.93,69.54,2.32,1.74,49.43-29.06,50.73-71.11.55-18-7.69-25.65-1.74-43.58,5.7-17.16,15.94-20.89,21.35-38.47C680.63,726,677.19,717.34,674.72,703.94Z"/><path class="cls-9" d="M606.73,892.23a1,1,0,0,1-.58-.17.78.78,0,0,1-.29-.51c-.08-.79,1-2,4-5.56,8.62-10,28.82-33.31,28-63.85a46.79,46.79,0,0,0-3.62-17.54c-1.83-4.85-3.56-9.42-2.78-18.57,1.12-13.26,6.12-21.34,11.42-29.89,5.09-8.22,10.35-16.72,12.12-30.42a32.56,32.56,0,0,0-.84-14.38,100.18,100.18,0,0,1-2.83-20.91c-.93-19.32,1.58-29.86,3.79-39.16,2.11-8.87,3.94-16.54,1.85-29.54a76.27,76.27,0,0,0-20-41.08c-8-8.35-15.73-12.38-17-12.66a26.24,26.24,0,0,0-5.48-.54c-.62,0-1.24.06-1.85.13-3.69.42-7,1.8-10.78,3.41a83.65,83.65,0,0,1-16,5.3c-18.29,4-34.53.42-38.1-2.57a2.13,2.13,0,0,1-.93-1.65c.1-2.66,8-4.88,27.48-10.08,5.65-1.51,8.36-2.07,11.22-2.66s5.62-1.16,11.39-2.63c6.73-1.71,11.31-3.07,14.66-4.06,4.76-1.41,6.93-2.06,9.1-1.9a25,25,0,0,1,2.61.56c6.85,1.85,44,20.13,55.35,62.51,4.72,17.68,1.86,28.56-1.16,40.08-3.17,12.08-6.76,25.78-2.31,50,.49,2.63,1,5.06,1.51,7.4,2,9.63,3.67,17.23.55,27.4-2.79,9.05-6.91,14.55-10.89,19.87-3.79,5.05-7.7,10.28-10.47,18.61-3.51,10.59-2,17.39-.35,25.27,1.15,5.34,2.34,10.86,2.12,18.17-1.12,36.39-36.48,65.08-48.54,70.87A6.33,6.33,0,0,1,606.73,892.23Zm8.07-325.78a26.79,26.79,0,0,1,5.4.56c3.57.79,31.69,16.76,37.77,54.56,2.13,13.2.28,20.95-1.85,29.93-2.2,9.24-4.69,19.7-3.77,38.89a98,98,0,0,0,2.8,20.72,33.47,33.47,0,0,1,.87,14.74c-1.81,13.92-7.13,22.51-12.27,30.81-5.23,8.45-10.17,16.43-11.28,29.45-.75,8.93.94,13.4,2.72,18.14a48.09,48.09,0,0,1,3.69,17.86c.82,30.93-19.56,54.48-28.25,64.54a37.69,37.69,0,0,0-3.7,4.6c1.11-.16,5.71-2.55,12.13-7.53,8.57-6.66,36.62-30.89,37.62-63.18.22-7.19-1-12.65-2.1-17.93-1.65-7.69-3.22-15,.38-25.79,2.82-8.49,6.79-13.78,10.62-18.9s8-10.68,10.73-19.57c3.05-9.92,1.45-17.41-.57-26.89-.5-2.35-1-4.79-1.51-7.43h0c-4.5-24.4-.87-38.21,2.32-50.39,3.12-11.88,5.81-22.14,1.16-39.57-11.18-41.92-47.88-60-54.64-61.8-1.37-.37-2.45-.53-2.47-.54-1.93-.13-4.06.49-8.7,1.87-3.36,1-7.95,2.35-14.69,4.07-5.79,1.47-8.79,2.09-11.44,2.64-2.85.58-5.54,1.14-11.16,2.65-14.9,4-26.67,7.12-26.74,9.15,0,.22.2.53.57.84,3.44,2.89,19.27,6.24,37.25,2.37a81.88,81.88,0,0,0,15.8-5.26c3.87-1.63,7.22-3,11-3.47.64-.08,1.3-.12,2-.14Z"/><path class="cls-8" d="M420,703.94c8.72-47.35-13.09-54-3.47-90,11.15-41.82,47.79-60.21,55-62.15,1.41-.38,2.51-.55,2.51-.55,3.55-.26,7.45,1.83,23.6,5.94,12,3.05,11.71,2.38,22.61,5.29,16.72,4.47,27,7.22,27.11,9.62.12,3.21-18,8.12-38.43,3.71-13.33-2.87-19-7.84-26.81-8.72-.63-.07-1.26-.11-1.9-.13a26.42,26.42,0,0,0-5.59.55c-2.36.52-31.18,15.56-37.39,54.15-4.25,26.43,7.46,30.58,5.63,68.76-1.11,23.23-5.45,21.63-3.67,35.37,3.6,27.8,21.33,34.17,23.55,60.29,1.45,17.17-5.92,17.79-6.41,36-1.06,40.29,34,68,31.93,69.54-2.32,1.74-49.43-29.06-50.73-71.11-.55-18,7.7-25.65,1.74-43.58-5.7-17.16-15.94-20.89-21.35-38.47C414.07,726,417.51,717.34,420,703.94Z"/><path class="cls-9" d="M488,892.23a6.3,6.3,0,0,1-2.42-.79C473.5,885.65,438.14,857,437,820.57c-.22-7.31,1-12.83,2.12-18.17,1.7-7.88,3.16-14.68-.35-25.27-2.77-8.33-6.68-13.56-10.47-18.61-4-5.32-8.1-10.82-10.88-19.87-3.13-10.17-1.51-17.77.54-27.39.51-2.35,1-4.78,1.51-7.41,4.45-24.18.86-37.88-2.31-50-3-11.52-5.87-22.4-1.16-40.08,11.31-42.38,48.5-60.66,55.36-62.51a22.7,22.7,0,0,1,2.57-.55c2.2-.17,4.37.48,9.13,1.89,3.35,1,7.94,2.35,14.66,4.06,5.77,1.47,8.63,2.06,11.39,2.63s5.57,1.15,11.22,2.66c19.48,5.2,27.39,7.42,27.49,10.08a2.14,2.14,0,0,1-.94,1.65c-3.57,3-19.81,6.52-38.1,2.57a83.28,83.28,0,0,1-16-5.3c-3.81-1.61-7.1-3-10.78-3.41-.62-.07-1.23-.11-1.86-.13a26.24,26.24,0,0,0-5.48.54c-1.26.28-9,4.31-17,12.66a76.34,76.34,0,0,0-20,41.08c-2.09,13-.26,20.67,1.85,29.54,2.21,9.3,4.72,19.84,3.79,39.16a100.18,100.18,0,0,1-2.83,20.91,32.71,32.71,0,0,0-.84,14.38c1.77,13.7,7,22.2,12.12,30.42,5.3,8.55,10.3,16.63,11.42,29.89.78,9.15-1,13.72-2.78,18.57a46.79,46.79,0,0,0-3.62,17.54c-.8,30.54,19.39,53.89,28,63.85,3,3.52,4.09,4.77,4,5.56a.74.74,0,0,1-.29.51A.9.9,0,0,1,488,892.23ZM474.06,551.74s-1.07.17-2.42.53c-6.77,1.82-43.47,19.88-54.65,61.8-4.65,17.43-2,27.69,1.16,39.57,3.19,12.18,6.82,26,2.32,50.39-.48,2.64-1,5.08-1.51,7.43-2,9.49-3.62,17-.57,26.89,2.74,8.89,6.8,14.32,10.73,19.57s7.8,10.41,10.62,18.9c3.6,10.84,2,18.1.38,25.79-1.14,5.28-2.32,10.74-2.1,17.93,1,32.29,29.06,56.53,37.63,63.19,6.29,4.88,10.83,7.27,12.11,7.49a41,41,0,0,0-3.68-4.57c-8.7-10.06-29.07-33.61-28.26-64.54a48.09,48.09,0,0,1,3.69-17.86c1.79-4.74,3.48-9.21,2.72-18.14-1.11-13-6.05-21-11.28-29.45-5.14-8.3-10.46-16.89-12.26-30.81a33.34,33.34,0,0,1,.86-14.74,98,98,0,0,0,2.8-20.72c.92-19.19-1.57-29.65-3.76-38.89-2.14-9-4-16.73-1.86-29.93,6.08-37.8,34.2-53.77,37.77-54.56a27.3,27.3,0,0,1,5.71-.56c.65,0,1.31.06,2,.14,3.83.43,7.18,1.84,11,3.47a81.88,81.88,0,0,0,15.8,5.26c18,3.87,33.81.52,37.25-2.37a1.36,1.36,0,0,0,.58-.84c-.08-2-11.85-5.17-26.74-9.15-5.63-1.51-8.32-2.06-11.17-2.65-2.65-.55-5.65-1.17-11.44-2.64-6.74-1.72-11.33-3.08-14.69-4.07-4.64-1.38-6.76-2-8.74-1.86Z"/><path class="cls-21" d="M2016,856c9.69-52.21,9.84-100.12,10-151,.1-31.38-1-57.54-2-76-175.43,13.64-222.71-6.29-230.14-29.27-5.19-16.05,9-32.22-.88-59.2-7.67-21-29.64-45-58.73-45-28.33.06-49.59,23-57.64,42.78-11.24,27.6,3.53,45.47-1.75,62C1667.14,624.42,1616,644.84,1426,629a315.43,315.43,0,0,0-25,84c-2.94,19.59-6.18,53.82,1.53,102.9,8.23,52.4,22,89.88,65.25,176.63,17.56,35.25,44.86,90.67,78.31,161.28l329.55,2.19a931.12,931.12,0,0,0,85.93-147C1985.33,958.1,2004.78,916.45,2016,856Z"/><path class="cls-22" d="M2023.89,628.9c-110.81,8.62-170.49,3.83-201.29-6.65a4.35,4.35,0,0,1-1.32,4.75c-15.64,14.51-22.21,36.61-31.78,55.09-6.52,12.61-14.87,24.15-23.94,35.12a5.11,5.11,0,0,1-.36,1.58,53,53,0,0,1-7.58,12.86A133.52,133.52,0,0,1,1746,751.09a5.7,5.7,0,0,1-4,2.2,66.38,66.38,0,0,1-4.26,8.17,4.83,4.83,0,0,1-4.5,2.39,6.62,6.62,0,0,1-1.15-.1,12.12,12.12,0,0,1-9.29-7.9,4.38,4.38,0,0,1-2.16-2.48,4.61,4.61,0,0,1-1.74-1.68c-24.57-43-50-85.44-75.45-127.88-33.36,10.65-97.93,15.06-217.56,5.09a315.31,315.31,0,0,0-25,84c-2.94,19.58-6.18,53.82,1.53,102.9,8.23,52.4,22,89.88,65.25,176.63,17.56,35.25,44.86,90.67,78.31,161.27l329.55,2.2a931.57,931.57,0,0,0,85.93-147c23.76-50.9,43.21-92.54,54.43-153,9.69-52.21,9.84-100.13,10-151C2026,673.52,2024.93,647.36,2023.89,628.9Z"/><path class="cls-23" d="M1591.5,1049a41.5,41.5,0,1,1,41.5-41.5A41.55,41.55,0,0,1,1591.5,1049Zm0-73a31.5,31.5,0,1,0,31.5,31.5A31.53,31.53,0,0,0,1591.5,976Z"/><path class="cls-24" d="M1567.38,1018.56c-1.73-.08-3.1,1.56-3.48,2-2.86,3.26-12.9,9.76-40.8,23.31a26,26,0,0,1-3-5.21c-.85-2-1-3.07-2-3.47-1.52-.62-4.1.85-4.34,2.48-.15,1,.71,1.73,2,3.47a26.7,26.7,0,0,1,3,5.21l-3.47,2c-.38-.6-.92-1.49-1.49-2.61s-.66-1.51-1-1.73c-1.61-1.11-6.18,1.46-6.08,3.47,0,.48.3.61,1.49,2.6.43.73.77,1.33,1,1.74l-3.47,2a56.79,56.79,0,0,1-3.47-6.07c-1.74-3.53-1.84-4.6-3-5.21-3-1.62-9.73,1.78-10.42,6-.46,2.79,2.15,3.7,6,10.42,3.52,6.21,3.3,9,5.46,9.55,3,.76,5.82-3.76,10.3-8.19,2.41-2.38,8.1-5.68,19.47-12.27,21-12.19,31.52-18.28,36.59-18.61,1.44-.09,4.67-.17,5.71-2.1C1573.82,1024.5,1570.53,1018.72,1567.38,1018.56Z"/><path class="cls-25" d="M1911,261q-2.51,118.5-5,237L1727.36,636.77,1554,498l-3-248c34.86-65.36,102.22-106.78,175.27-107.5C1805,141.71,1877.59,188.26,1911,261Z"/><path class="cls-11" d="M1881.46,387.34a115.42,115.42,0,0,1-38.68,8.58,111.58,111.58,0,0,1-43.59-6.6,104.16,104.16,0,0,1-22.53-11.8q15.75-9.06,33.33-17.77c12.16-6.05,25-11.9,38.49-17.42.49-.23,1-.42,1.46-.62q11.68-4.72,23.06-8.84a66.62,66.62,0,0,1,8.46,54.47Z"/><path class="cls-26" d="M1855.91,359.26a23,23,0,0,1-45.92.49c12.16-6.05,25-11.9,38.49-17.42A22.89,22.89,0,0,1,1855.91,359.26Z"/><rect class="cls-13" x="1886.52" y="379.02" width="14.73" height="0.5" transform="translate(-6.91 722.22) rotate(-21.55)"/><rect class="cls-13" x="1891.68" y="383.77" width="0.5" height="14.84" transform="matrix(0.04, -1, 1, 0.04, 1426.6, 2266.26)"/><path class="cls-11" d="M1581.35,387.34a115.42,115.42,0,0,0,38.68,8.58,111.58,111.58,0,0,0,43.59-6.6,104.16,104.16,0,0,0,22.53-11.8q-15.75-9.06-33.33-17.77c-12.16-6.05-25-11.9-38.49-17.42-.49-.23-1-.42-1.46-.62q-11.67-4.72-23.06-8.84a66.62,66.62,0,0,0-8.46,54.47Z"/><path class="cls-27" d="M1606.9,359.26a23,23,0,0,0,45.92.49c-12.16-6.05-25-11.9-38.49-17.42A22.89,22.89,0,0,0,1606.9,359.26Z"/><rect class="cls-13" x="1568.68" y="371.9" width="0.5" height="14.73" transform="translate(640.73 1699.81) rotate(-68.49)"/><rect class="cls-13" x="1563.46" y="390.94" width="14.84" height="0.5" transform="translate(-14.07 61.61) rotate(-2.24)"/><path class="cls-13" d="M1898.32,310.25l-.57,1.14L1861.19,308l-91.25,9c-.79-2.23-1.57-4.47-2.35-6.7l8.77-6.83q.93,2.28,1.88,4.56l8.34-5.72,6,4.21,9.81-5.93c.42,1.7.84,3.39,1.25,5.09l65-.91Z"/><path class="cls-13" d="M1769.6,317.49l-2.6-7.42,9.57-7.44,1.9,4.58,8.11-5.56,6,4.22,10.11-6.11,1.32,5.36,64.6-.9,30.45,5.66-1,2-36.91-3.44Zm-1.42-7.07,2.1,6,90.86-8.94,36.32,3.38.11-.24-29-5.41-65.29.93-1.19-4.82-9.5,5.75-6-4.2-8.57,5.87-1.86-4.52Z"/><path class="cls-13" d="M1559.15,310.25c.18.38.37.76.56,1.14l36.57-3.41,91.24,9c.79-2.23,1.57-4.47,2.35-6.7l-8.77-6.83q-.93,2.28-1.88,4.56l-8.34-5.72-6,4.21-9.82-5.93c-.42,1.7-.83,3.39-1.25,5.09l-65-.91Z"/><path class="cls-13" d="M1687.86,317.49l-91.63-9-36.82,3.44-1-2,30.35-5.65,64.7.89,1.32-5.36,10.11,6.11,6-4.22,8.11,5.56,1.9-4.58,9.58,7.44Zm-91.63-10,91,8.94,2.1-6-8-6.2-1.87,4.52-8.57-5.87-6,4.2-9.51-5.75-1.19,4.82-65.39-.92-28.95,5.4.11.24Z"/><path class="cls-13" d="M1737.4,468c-2,0-4.38-.08-7.15-.19-9.24-.34-13.88-.51-16.81-2.86-6-4.82-5.8-18,.5-32.8l.46.2c-6.21,14.59-6.47,27.53-.65,32.21,2.8,2.25,7.38,2.42,16.52,2.75,9,.33,13,.4,15.8-1.44,6.41-4.25,7-18.12,1.47-34.52l.47-.16c5.6,16.62,4.93,30.72-1.66,35.1C1744.32,467.66,1741.55,468,1737.4,468Z"/><polygon class="cls-13" points="1668.92 547.62 1668.68 547.18 1693.02 533.56 1693.09 533.56 1769.12 533.28 1792.18 544.16 1791.96 544.61 1769.01 533.78 1693.15 534.06 1668.92 547.62"/><path class="cls-28" d="M1574.69,219.23c-14.33,15.22-22.14,46.38-37.18,108.07-1.94,8-3.48,14.59-4.51,19.09,22.07-7.51,62.35-25,91.45-65.22,17.21-23.78,39.81-68.36,25.63-83C1637.67,185.43,1597,195.56,1574.69,219.23Z"/><path class="cls-29" d="M1879,193c-3.38,12-73.86-5.64-168,.25a621.32,621.32,0,0,0-168,34.47l23.55-38.13c43.41-24.3,134.75-66.31,231.56-40.4C1838.78,160,1881.71,183.24,1879,193Z"/><path class="cls-29" d="M1889.87,231c-3.63,13.16-79.33-6.18-180.43.27A655.63,655.63,0,0,0,1529,269l25.3-41.79c46.62-26.63,144.73-72.67,248.71-44.28C1846.7,194.86,1892.8,220.3,1889.87,231Z"/><path class="cls-29" d="M1874.87,262.45c-3.47,12-75.95-5.65-172.75.24a654.61,654.61,0,0,0-172.76,34.47L1553.59,259c44.63-24.29,138.57-66.3,238.12-40.4C1833.54,229.51,1877.68,252.73,1874.87,262.45Z"/><path class="cls-29" d="M1828.89,161.69c18.5,7.11,69.67,29.39,87,73.87,7.79,20,13.14,55.87,13.82,72.15,0,1.37.44,11.25,1.15,24.81.45,8.58.87,15.6,1.15,20.2a62.27,62.27,0,0,1-11.08-4c-14-6.69-24.76-18.43-40.75-47.32-11.86-21.44-10.23-22.73-17.27-34.63-7.72-13-21.09-30.78-45.41-48Z"/><line class="cls-1" x1="1854.14" y1="249.97" x2="1874.26" y2="185.58"/><rect class="cls-30" x="1830.47" y="217.28" width="67.47" height="1" transform="translate(1099.69 1931.89) rotate(-72.63)"/><path class="cls-30" d="M1572,247.83l-.48-.88a339.81,339.81,0,0,1,284.72-19.27l-.35.94A338.8,338.8,0,0,0,1572,247.83Z"/><path class="cls-30" d="M1575.77,217.77l-.48-.88A339.81,339.81,0,0,1,1860,197.62l-.35.93a338.85,338.85,0,0,0-283.89,19.22Z"/><path d="M1738,1155h-11V762a8.65,8.65,0,0,0,5,2,8.77,8.77,0,0,0,6-2Z"/><path class="cls-31" d="M1918.43,771.92c1.13,13,1.8,27.24,1.69,42.5-.09,12.79-.72,24.82-1.69,36"/><path class="cls-31" d="M1537.19,768c-1.13,13-1.8,27.24-1.69,42.5.09,12.79.72,24.82,1.69,36"/><path class="cls-32" d="M2014.83,839.2c-20.25-22.06-69.56-6.41-129.74,13.4-97.47,32.1-104.68,56.28-151,55.21-52-1.21-53.52-31.93-130.68-56.3-69.2-21.86-167.43-28.54-189.24,12.06-9.67,18-1.34,39.75,1.09,46.08,3.82,10,19.31,43.76,147.91,79,45.17,12.38,86.71,23.76,146.83,27.43,47.51,2.9,105.89,5.93,175.11-16.46,43.59-14.09,106.4-34.4,129.43-90C2016.35,905.22,2034.33,860.45,2014.83,839.2Z"/><path class="cls-33" d="M1711.62,739.13,1644,622.87,1575.5,633.5Z"/><path class="cls-33" d="M1720.34,755.09l-48.44-83.36-68.4,21.77Z"/><path class="cls-33" d="M1750.56,737.86,1818.23,622l68.45,10.6Z"/><path class="cls-33" d="M1790.28,670.69l-48.44,83.07,116.84-61.37Z"/><path class="cls-22" d="M1677.41,888.49c-6.91,16.75-6.84,36.37-7.15,54.09-.13,7.45-.26,14.93-.5,22.41,0,.56,0,1.13-.06,1.69a93.06,93.06,0,0,1-14.16,14.39,111.09,111.09,0,0,1-42.07,21.21l-2.08-.49c-16.4-3.88-32.23-8.21-48.51-12.68-128.6-35.23-144.09-69-147.92-79-2.43-6.34-10.76-28.08-1.09-46.08,21.82-40.61,120-33.93,189.25-12.07C1641.33,864,1661,877.67,1677.41,888.49Z"/><path class="cls-22" d="M2014.56,839.66c-20.25-22.06-69.56-6.41-129.74,13.41-34.68,11.42-57.93,21.83-75.59,30.47-5.87,27.17-4.4,55.71-4.89,83.31-.3,16.8-2.51,33.47-4.33,50.17a375.64,375.64,0,0,0,84.81-16.94c43.59-14.1,106.4-34.41,129.43-90C2016.08,905.69,2034.06,860.92,2014.56,839.66Z"/><path class="cls-31" d="M1611.08,1002.71c12.65-3,31-9.08,48.25-23.3,15.19-12.53,19.84-23.39,30-35,12.11-13.89,33.63-30.73,74.58-39.66"/><path class="cls-24" d="M421.84,1136.35l-28,3.61V304.05l30.3-3.61Q423,718.4,421.84,1136.35Z"/><path class="cls-24" d="M517.4,1124.6l-28,3.61V292.3l30.3-3.61Q518.58,706.65,517.4,1124.6Z"/><path class="cls-24" d="M606,1112.27l-28,3.61V280l30.3-3.61Q607.15,694.32,606,1112.27Z"/><path class="cls-34" d="M512,1013c2.2-.36,3.47-1.29,3.41-2.77-.17-3.84-9.07-9.93-19.88-13.61-6.53-2.22-15.4-5.59-19.28.27-1.23,1.84-1.76,4.37-2.83,9.44A52,52,0,0,0,472,1017.9c0,4.77,0,8.73,1.45,12.43,3.82,9.86,16.08,13.55,21.93,15.55,11.92,4.06,21.42,3.68,21.23-.85-.09-2-2-4.44-5.18-6.91,6.18.59,10.16-.53,10-3.37-.11-2.36-3-5.45-7.61-8.53,5.56.45,9.07-.57,9-3.09C522.72,1020.41,518.42,1016.58,512,1013Z"/><path class="cls-35" d="M582.47,1023.41c-2.2-.36-3.47-1.28-3.41-2.77.17-3.83,9.07-9.92,19.88-13.61,6.53-2.22,15.4-5.58,19.29.27,1.22,1.84,1.75,4.38,2.82,9.44a52.14,52.14,0,0,1,1.35,11.63c0,4.76,0,8.72-1.45,12.43-3.81,9.85-16.08,13.55-21.93,15.54-11.91,4.06-21.42,3.68-21.23-.85.09-2,2-4.43,5.18-6.91-6.18.59-10.16-.52-10-3.36.1-2.36,3-5.46,7.61-8.54-5.57.45-9.07-.57-9-3.09C571.7,1030.87,576,1027,582.47,1023.41Z"/><path class="cls-24" d="M694.54,1096.09l-28,3.6V263.78l30.3-3.6Q695.72,678.14,694.54,1096.09Z"/><path class="cls-36" d="M314.92,1150.27l-95.56,14.8V329.15l95.56-14.79Z"/><path class="cls-36" d="M858,1075.89l-95.56,14.79V254.77L858,240Z"/><path class="cls-24" d="M44.55,1135.07l28,3.61V302.76l-30.3-3.6Q43.38,717.12,44.55,1135.07Z"/><path d="M123.79,1151.21,219.36,1166V330.09l-95.57-14.8Z"/><path class="cls-37" d="M858,240a18,18,0,0,1,5,10c1.15,8.28-4.24,14.19-5,15L529,309c-231.24,41.22-308.64,50.24-310,44a69.47,69.47,0,0,1,0-12c.52-6.81,1.63-9.57,0-11-2.08-1.83-5.38,1.38-12,1-5.08-.29-10.91-2.62-11-5-.08-2.18,4.64-4.54,11-6l323-42c181-23.39,294.39-38.83,304-42a25.65,25.65,0,0,1,14-1A24.52,24.52,0,0,1,858,240Z"/><path class="cls-37" d="M-391.25,246.64a14.41,14.41,0,0,0-4.64,8.51c-1,7.08,4.27,12.23,5,12.94l315.69,42.54c222,38.74,296.29,47.61,297.5,42.28a53.66,53.66,0,0,0-.17-10.3c-.6-5.85-1.7-8.23-.16-9.43,2-1.54,5.16,1.26,11.5,1,4.87-.17,10.41-2.08,10.46-4.13.05-1.86-4.51-4-10.62-5.3L-76.6,284c-173.63-22.71-282.48-37.61-291.72-40.47a27.59,27.59,0,0,0-13.42-1.06A23.87,23.87,0,0,0-391.25,246.64Z"/><path class="cls-38" d="M858,240.38,219.36,329.15-375,240.38,219.36,196Z"/></g></g></svg>