<svg xmlns="http://www.w3.org/2000/svg" width="283.96" height="284.02" viewBox="0 0 283.96 284.02"><defs><style>.cls-1{fill:#7e57c5;}.cls-2{fill:#773dbd;}.cls-3{fill:#60269e;}.cls-4{fill:#993dbb;}.cls-5{fill:#655dc6;}.cls-6{fill:#9578d3;}.cls-7{fill:#9e28b5;}.cls-8{fill:#410099;}.cls-9{fill:#a05cbf;}.cls-10{fill:#9164cc;}</style></defs><g id="Layer_2" data-name="Layer 2"><g id="Layer_1-2" data-name="Layer 1"><path class="cls-1" d="M215.78,20.71A140.84,140.84,0,0,0,163.21,1.58c7.7,6.58,16.61,13,26.51,16.8C199.91,22.34,208.17,22.43,215.78,20.71Z"/><path class="cls-2" d="M136.42,16.49c1.26-5.34.6-11-.53-16.33a141.32,141.32,0,0,0-81,29.59c8.38,1.62,17,3.06,25.87,4.25C92.58,35.49,130.83,40.14,136.42,16.49Z"/><path class="cls-3" d="M235.11,165c-15.64,7.21-13.15,16.13-27.55,20-21.22,5.7-34.17-11.61-59.24-10-34.2,2.19-42.54,36.49-66.12,35-25-1.58-26-40.82-55.1-45-9.25-1.33-16.88,1.53-24.31,5.83a140.94,140.94,0,0,0,16.32,42.61,31.85,31.85,0,0,1,7.74-.44c12.85.76,11.44,7.27,28,11,26.08,5.87,53.76-4.82,62-8,10.29-4,12.63-6.32,19-6,19,1,35.79,23.66,32,30-3.45,5.77-20.57-7.78-51-5-26.79,2.44-30,14.44-51,12-15.56-1.81-21-9.25-30.87-11.5a142.74,142.74,0,0,0,33.48,28.08c24.65,2.69,59.09,5.65,95.82.42,9.23-1.31,39.09-6.06,36-30-1.85-14.31-14.48-27.54-13.9-34.37.85-10,27.75,19.49,54.13,23.48,9.31,1.4,15.68-.8,21-4.65a141.2,141.2,0,0,0,21.09-57.56C268.34,159,250.2,158,235.11,165Z"/><path class="cls-4" d="M194.05,135c-2.53-1.94,10.09-20.86,33.71-26.69,10.87-2.68,25.43-.65,53,3.82a139.73,139.73,0,0,0-7.69-24.65c-41.57-5.6-67.07,5.27-83,17.22-11.92,8.91-19.28,19-35,22.32-21.41,4.56-36.89-7.9-55-16.37-19-8.86-48-16.73-90-8.93l-5.16,3.14A142.66,142.66,0,0,0,0,142c0,3.82.16,7.59.45,11.33C30.66,140.42,55.36,120.59,72.7,128c12.93,5.51,5.8,19.33,22,27,13.2,6.23,27.37,1.57,63.37-5,50.78-9.28,77.44-13.92,106.06-8a126.23,126.23,0,0,1,19.7,5.75c.08-1.91.13-3.82.13-5.75a142.26,142.26,0,0,0-.93-16.25c-17.32-4.65-21-9.71-35.58-9.87C217,115.49,196.92,137.23,194.05,135Z"/><path class="cls-5" d="M107.47,86.85c29.22-7.24,37.19-18.09,68.77-19.35,22.89-.92,33.81,4.18,52.52,7.44a175.67,175.67,0,0,0,39.53,2.32,142.53,142.53,0,0,0-37.71-46.15c-48.27,7-46.12,30.44-94.16,32C90.11,64.64,67.42,43.52,28.88,56A141.84,141.84,0,0,0,12.23,84C37.65,83.62,63,97.86,107.47,86.85Z"/><path class="cls-6" d="M136.42,63.13c48-1.58,45.89-25,94.16-32a142.08,142.08,0,0,0-14.8-10.4c-7.61,1.72-15.87,1.63-26.06-2.33-9.9-3.83-18.81-10.22-26.51-16.8A142.47,142.47,0,0,0,141.87,0c-2,0-4,.05-6,.13,1.13,5.33,1.79,11,.53,16.33C130.81,40.16,92.56,35.54,80.79,34c-8.85-1.19-17.49-2.63-25.87-4.25A142.83,142.83,0,0,0,28.86,56C67.38,43.54,90.11,64.66,136.42,63.13Z"/><path class="cls-3" d="M100,110.66c18.12,8.47,33.6,20.93,55,16.37,15.74-3.34,23.1-13.41,35-22.32,16-12,41.46-22.82,83-17.22-1.45-3.49-3-6.9-4.74-10.23a175.67,175.67,0,0,1-39.53-2.32c-18.71-3.26-29.63-8.36-52.52-7.44-31.58,1.26-39.55,12.11-68.77,19.35C63,97.85,37.59,83.62,12.17,84a140.55,140.55,0,0,0-7.45,20.91l5.16-3.14C51.94,93.93,81,101.8,100,110.66Z"/><path class="cls-7" d="M116.87,235c30.43-2.78,47.55,10.77,51,5,3.79-6.34-13-29-32-30-6.37-.32-8.71,2-19,6-8.24,3.18-35.92,13.87-62,8-16.56-3.73-15.15-10.24-28-11a31.85,31.85,0,0,0-7.74.44A143.49,143.49,0,0,0,35,235.49c9.92,2.25,15.31,9.69,30.87,11.5C86.84,249.42,90.11,237.42,116.87,235Z"/><path class="cls-8" d="M158,150c-36,6.57-50.17,11.23-63.37,5-16.24-7.67-9.11-21.49-22-27-17.34-7.39-42,12.44-72.25,25.33a141.47,141.47,0,0,0,2.48,17.5c7.43-4.3,15.06-7.16,24.31-5.83,29.13,4.18,30.1,43.42,55.1,45,23.58,1.49,31.92-32.81,66.12-35,25.07-1.61,38,15.7,59.24,10,14.4-3.87,11.91-12.79,27.55-20,15.08-7,33.22-6,47.49-4.06q.87-6.51,1.13-13.19a126.23,126.23,0,0,0-19.7-5.75C235.42,136.06,208.76,140.7,158,150Z"/><path class="cls-9" d="M227.76,108.32c-23.62,5.83-36.24,24.75-33.71,26.69,2.87,2.22,22.93-19.48,53.31-19.15,14.55.16,18.26,5.22,35.58,9.87-.53-4.6-1.27-9.14-2.22-13.59C253.19,107.67,238.63,105.64,227.76,108.32Z"/><path class="cls-10" d="M240.52,223.13c-26.38-4-53.28-33.46-54.13-23.48-.58,6.83,12,20.06,13.9,34.37,3.1,23.9-26.76,28.65-36,30-36.73,5.23-71.17,2.27-95.82-.42a142,142,0,0,0,193-45.08C256.2,222.33,249.83,224.49,240.52,223.13Z"/></g></g></svg>