<svg xmlns="http://www.w3.org/2000/svg" width="197.05" height="202" viewBox="0 0 197.05 202"><defs><style>.cls-1{fill:#9e005d;}.cls-2{fill:#a1007d;}.cls-3{fill:#b14fc5;}.cls-4{fill:#870064;}.cls-5{fill:#9e28b5;}.cls-6{fill:#df3faf;}.cls-7{fill:#c028b9;}.cls-8{fill:#e79cda;}.cls-9{fill:#b4008d;}</style></defs><g id="Layer_2" data-name="Layer 2"><g id="Layer_1-2" data-name="Layer 1"><path class="cls-1" d="M163.18,117.36c-10.84,5.13-9.12,11.47-19.11,14.22-14.72,4.06-23.7-8.25-41.09-7.11-23.72,1.56-29.51,25.95-45.86,24.9-17.35-1.13-18-29-38.22-32-6.42-1-11.72,1.09-16.87,4.14a101.94,101.94,0,0,0,11.33,30.31,22,22,0,0,1,5.37-.31c8.91.54,7.93,5.17,19.42,7.82,18.09,4.18,37.3-3.42,43-5.69,7.14-2.82,8.76-4.49,13.18-4.26,13.16.68,24.83,16.83,22.2,21.33-2.4,4.11-14.27-5.53-35.38-3.55-18.59,1.74-20.83,10.27-35.38,8.53-10.79-1.29-14.53-6.58-21.41-8.18a99.81,99.81,0,0,0,23.22,20c17.1,1.91,41,4,66.47.3,6.4-.94,27.11-4.31,25-21.32-1.29-10.17-10-19.58-9.65-24.44.59-7.1,19.25,13.86,37.55,16.7,6.46,1,10.88-.57,14.57-3.31a102.08,102.08,0,0,0,14.63-40.94C186.23,113.12,173.64,112.41,163.18,117.36Z"/><path class="cls-2" d="M149.77,14.75A96.34,96.34,0,0,0,113.3,1.14c5.35,4.68,11.53,9.22,18.39,12C138.76,15.9,144.49,16,149.77,14.75Z"/><path class="cls-2" d="M134.69,96.05c-1.75-1.39,7-14.84,23.39-19,7.54-1.91,17.64-.46,36.73,2.71a102.15,102.15,0,0,0-5.33-17.53c-28.84-4-46.52,3.75-57.6,12.25-8.26,6.34-13.37,13.5-24.28,15.88C92.74,93.6,82,84.74,69.43,78.72,56.28,72.41,36.12,66.82,7,72.36c-1.18.75-2.37,1.49-3.57,2.23A103.27,103.27,0,0,0,0,101c0,2.71.11,5.4.31,8.06,21-9.17,38.09-23.27,50.12-18,9,3.92,4,13.75,15.29,19.21,9.15,4.43,19,1.12,44-3.56,35.23-6.6,53.72-9.9,73.58-5.69A85.5,85.5,0,0,1,197,105.11c.06-1.36.09-2.72.09-4.09a103.89,103.89,0,0,0-.65-11.56c-12-3.3-14.58-6.9-24.67-7C150.6,82.19,136.68,97.62,134.69,96.05Z"/><path class="cls-3" d="M94.72,11.71A27.39,27.39,0,0,0,94.35.1a96.51,96.51,0,0,0-56.15,21c5.81,1.15,11.8,2.18,18,3C64.31,25.28,90.84,28.57,94.72,11.71Z"/><path class="cls-4" d="M74.64,61.79c20.27-5.15,25.79-12.87,47.7-13.76,15.88-.66,23.45,3,36.43,5.29A118.37,118.37,0,0,0,186.2,55,101.15,101.15,0,0,0,160,22.14c-33.49,5-32,21.65-65.32,22.78C62.56,46,46.79,31,20.08,39.83A102.09,102.09,0,0,0,8.53,59.73C26.2,59.49,43.81,69.62,74.64,61.79Z"/><path class="cls-5" d="M94.72,44.92C128,43.79,126.55,27.11,160,22.14a98.18,98.18,0,0,0-10.27-7.39c-5.28,1.22-11,1.15-18.08-1.66-6.86-2.73-13-7.27-18.39-11.95A96.48,96.48,0,0,0,98.5,0c-1.39,0-2.77,0-4.15.1a27.39,27.39,0,0,1,.37,11.61C90.84,28.57,64.31,25.28,56.15,24.16c-6.15-.84-12.14-1.87-18-3A100.34,100.34,0,0,0,20.07,39.85C46.83,31,62.6,46,94.72,44.92Z"/><path class="cls-6" d="M69.43,78.73c12.57,6,23.31,14.88,38.17,11.64,10.91-2.38,16-9.54,24.28-15.88C143,66,160.64,58.26,189.48,62.24c-1-2.48-2.1-4.9-3.28-7.28a118.35,118.35,0,0,1-27.43-1.64c-13-2.32-20.55-6-36.43-5.29-21.91.89-27.43,8.61-47.7,13.76-30.83,7.83-48.44-2.3-66.07-2.06A103,103,0,0,0,3.41,74.6c1.2-.74,2.39-1.48,3.57-2.23C36.12,66.83,56.28,72.42,69.43,78.73Z"/><path class="cls-5" d="M81.16,167.15c21.11-2,33,7.66,35.38,3.55,2.63-4.5-9-20.65-22.2-21.33-4.42-.23-6,1.44-13.18,4.26-5.71,2.27-24.92,9.87-43,5.69-11.49-2.65-10.51-7.28-19.42-7.82a22,22,0,0,0-5.37.31,100.5,100.5,0,0,0,11,15.69c6.88,1.6,10.62,6.89,21.41,8.18C60.33,177.42,62.57,168.89,81.16,167.15Z"/><path class="cls-7" d="M109.67,106.69c-25,4.68-34.8,8-44,3.56C54.4,104.79,59.34,95,50.38,91c-12-5.25-29.16,8.85-50.12,18A104.6,104.6,0,0,0,2,121.5c5.15-3,10.45-5.09,16.87-4.14,20.2,3,20.87,30.88,38.22,32,16.35,1,22.14-23.34,45.86-24.9,17.39-1.14,26.37,11.17,41.09,7.11,10-2.75,8.27-9.09,19.11-14.22,10.46-5,23-4.24,33-2.89q.6-4.62.78-9.38A85.5,85.5,0,0,0,183.27,101C163.39,96.79,144.9,100.09,109.67,106.69Z"/><path class="cls-8" d="M158.08,77.06c-16.39,4.15-25.14,17.6-23.39,19,2,1.57,15.91-13.86,37-13.63,10.09.12,12.66,3.72,24.67,7-.36-3.27-.87-6.5-1.54-9.67C175.72,76.6,165.62,75.15,158.08,77.06Z"/><path class="cls-9" d="M166.93,158.72c-18.3-2.84-37-23.8-37.55-16.7-.4,4.86,8.36,14.27,9.65,24.44,2.14,17-18.57,20.38-25,21.32-25.48,3.71-49.37,1.61-66.47-.3A96.25,96.25,0,0,0,98.5,202c34.86,0,65.49-18.57,83-46.59C177.81,158.15,173.39,159.72,166.93,158.72Z"/></g></g></svg>