<svg xmlns="http://www.w3.org/2000/svg" width="268" height="259" viewBox="0 0 268 259"><defs><style>.cls-1{fill:#870064;}.cls-2{fill:#df3faf;}.cls-3{fill:#ce009f;}.cls-4{fill:#ef86ce;}.cls-5{fill:#e79cda;}.cls-6{fill:#752157;}.cls-7{fill:#c028b9;}.cls-8{fill:#a1007d;}.cls-9{fill:#9d1d64;}</style></defs><g id="Layer_2" data-name="Layer 2"><g id="Layer_1-2" data-name="Layer 1"><path class="cls-1" d="M222,150.48c-14.75,6.57-12.4,14.7-26,18.23-20,5.21-32.24-10.58-55.89-9.11-32.27,2-40.15,33.27-62.4,31.91-23.59-1.44-24.51-37.22-52-41C17,149.29,9.77,151.9,2.77,155.82a125.88,125.88,0,0,0,15.4,38.86,32,32,0,0,1,7.31-.4c12.13.7,10.79,6.63,26.42,10,24.61,5.35,50.74-4.39,58.51-7.29,9.71-3.63,11.91-5.77,17.93-5.48,17.91.88,33.77,21.59,30.2,27.36-3.26,5.26-19.41-7.09-48.13-4.56-25.29,2.23-28.34,13.18-48.13,11-14.68-1.66-19.77-8.44-29.13-10.49a133.77,133.77,0,0,0,31.59,25.61c23.26,2.45,55.77,5.15,90.42.38,8.72-1.2,36.89-5.52,34-27.33-1.75-13-13.66-25.11-13.12-31.33.81-9.11,26.19,17.77,51.08,21.4,8.79,1.29,14.8-.72,19.82-4.23a126,126,0,0,0,19.9-52.5C253.34,145,236.23,144.13,222,150.48Z"/><path class="cls-1" d="M203.75,18.91A135.92,135.92,0,0,0,154.14,1.46c7.27,6,15.67,11.83,25,15.32C188.77,20.39,196.56,20.47,203.75,18.91Z"/><path class="cls-2" d="M183.24,123.15c-2.38-1.78,9.52-19,31.81-24.35,10.25-2.45,24-.59,50,3.48a126,126,0,0,0-7.26-22.48c-39.23-5.1-63.29,4.81-78.36,15.71-11.24,8.13-18.19,17.31-33,20.36-20.22,4.15-34.82-7.21-51.92-14.93-17.9-8.08-45.32-15.26-85-8.14L4.64,95.65A125.76,125.76,0,0,0,0,129.5c0,3.48.15,6.93.43,10.34,28.5-11.77,51.81-29.85,68.18-23.11,12.19,5,5.46,17.63,20.79,24.63,12.46,5.68,25.83,1.43,59.8-4.56,47.92-8.46,73.08-12.7,100.09-7.3a122.23,122.23,0,0,1,18.59,5.25c.07-1.75.12-3.49.12-5.25a126.61,126.61,0,0,0-.88-14.82c-16.34-4.24-19.84-8.85-33.57-9C204.88,105.38,186,125.17,183.24,123.15Z"/><path class="cls-1" d="M128.86,15c1.19-4.87.56-10-.51-14.89A136.15,136.15,0,0,0,52,27.11C59.88,28.58,68,29.9,76.38,31,87.49,32.42,123.58,36.63,128.86,15Z"/><path class="cls-3" d="M101.54,79.22c27.57-6.6,35.09-16.49,64.89-17.64,21.6-.84,31.91,3.81,49.56,6.78a170.12,170.12,0,0,0,37.31,2.11,130.82,130.82,0,0,0-35.59-42.08c-45.54,6.37-43.52,27.76-88.85,29.21C85.16,59,63.71,39.72,27.37,51.07A129.15,129.15,0,0,0,11.66,76.59C35.65,76.28,59.6,89.26,101.54,79.22Z"/><path class="cls-4" d="M128.86,57.6c45.33-1.45,43.31-22.84,88.85-29.21a132.28,132.28,0,0,0-14-9.48c-7.19,1.56-15,1.48-24.6-2.13-9.34-3.49-17.74-9.32-25-15.32A139.53,139.53,0,0,0,134,0c-1.89,0-3.77,0-5.65.12,1.07,4.86,1.7,10,.51,14.89-5.28,21.62-41.37,17.41-52.48,16C68,29.93,59.88,28.61,52,27.14a132.5,132.5,0,0,0-24.6,24C63.71,39.72,85.16,59,128.86,57.6Z"/><path class="cls-5" d="M94.46,100.94c17.1,7.72,31.7,19.08,51.92,14.93,14.84-3,21.79-12.23,33-20.36,15.07-10.9,39.13-20.81,78.36-15.71-1.37-3.17-2.85-6.29-4.47-9.33A169.79,169.79,0,0,1,216,68.36c-17.65-3-28-7.62-49.56-6.78-29.8,1.15-37.32,11-64.89,17.64-41.94,10-65.89-2.94-89.88-2.63a126.86,126.86,0,0,0-7,19.06L9.54,92.8C49.14,85.68,76.56,92.86,94.46,100.94Z"/><path class="cls-6" d="M110.41,214.31c28.72-2.53,44.87,9.82,48.13,4.56,3.57-5.77-12.29-26.48-30.2-27.36-6-.29-8.22,1.85-17.93,5.48-7.77,2.9-33.9,12.64-58.51,7.29-15.63-3.4-14.29-9.33-26.42-10a32,32,0,0,0-7.31.4,130.86,130.86,0,0,0,15,20.12c9.36,2,14.45,8.83,29.13,10.49C82.07,227.49,85.12,216.54,110.41,214.31Z"/><path class="cls-7" d="M149.2,136.8c-34,6-47.34,10.24-59.8,4.56-15.33-7-8.6-19.6-20.79-24.63C52.24,110,28.93,128.07.43,139.84a122.64,122.64,0,0,0,2.34,15.95c7-3.92,14.2-6.53,22.94-5.31,27.48,3.81,28.4,39.59,52,41,22.25,1.36,30.13-29.92,62.4-31.91,23.65-1.47,35.87,14.32,55.89,9.11,13.6-3.53,11.25-11.66,26-18.23,14.24-6.35,31.35-5.44,44.82-3.71q.82-5.93,1.07-12a122.23,122.23,0,0,0-18.59-5.25C222.28,124.1,197.12,128.34,149.2,136.8Z"/><path class="cls-8" d="M215.05,98.8c-22.29,5.32-34.19,22.57-31.81,24.35,2.71,2,21.64-17.77,50.31-17.47,13.73.15,17.23,4.76,33.57,9a123.87,123.87,0,0,0-2.09-12.4C239.05,98.21,225.3,96.35,215.05,98.8Z"/><path class="cls-9" d="M227.09,203.5C202.2,199.87,176.82,173,176,182.1c-.54,6.22,11.37,18.29,13.12,31.33,2.92,21.81-25.25,26.13-34,27.33-34.65,4.77-67.16,2.07-90.42-.38A136.81,136.81,0,0,0,134,259c47.42,0,89.09-23.81,112.91-59.73C241.89,202.78,235.88,204.79,227.09,203.5Z"/></g></g></svg>