<svg id="Layer_1" data-name="Layer 1" xmlns="http://www.w3.org/2000/svg" xmlns:xlink="http://www.w3.org/1999/xlink" width="1920" height="1080" viewBox="0 0 1920 1080"><defs><style>.cls-1{fill:none;}.cls-2{clip-path:url(#clip-path);}.cls-3{fill:#ef86ce;}.cls-4{fill:#ee85ce;}.cls-5{fill:#ed84cd;}.cls-6{fill:#ec83cd;}.cls-7{fill:#ec82cd;}.cls-8{fill:#eb81cd;}.cls-9{fill:#ea80cc;}.cls-10{fill:#e97fcc;}.cls-11{fill:#e87ecc;}.cls-12{fill:#e77dcc;}.cls-13{fill:#e67ccb;}.cls-14{fill:#e57bcb;}.cls-15{fill:#e57acb;}.cls-16{fill:#e479cb;}.cls-17{fill:#e378ca;}.cls-18{fill:#e277ca;}.cls-19{fill:#e176ca;}.cls-20{fill:#e075c9;}.cls-21{fill:#df74c9;}.cls-22{fill:#de73c9;}.cls-23{fill:#de72c9;}.cls-24{fill:#dd71c8;}.cls-25{fill:#dc70c8;}.cls-26{fill:#db6fc8;}.cls-27{fill:#da6ec8;}.cls-28{fill:#d96dc7;}.cls-29{fill:#d86cc7;}.cls-30{fill:#d76bc7;}.cls-31{fill:#d76ac6;}.cls-32{fill:#d669c6;}.cls-33{fill:#d568c6;}.cls-34{fill:#d467c6;}.cls-35{fill:#d366c5;}.cls-36{fill:#d265c5;}.cls-37{fill:#d164c5;}.cls-38{fill:#d163c5;}.cls-39{fill:#d062c4;}.cls-40{fill:#cf61c4;}.cls-41{fill:#ce60c4;}.cls-42{fill:#cd5fc4;}.cls-43{fill:#cc5ec3;}.cls-44{fill:#cb5dc3;}.cls-45{fill:#ca5cc3;}.cls-46{fill:#ca5bc2;}.cls-47{fill:#c95ac2;}.cls-48{fill:#c859c2;}.cls-49{fill:#c758c2;}.cls-50{fill:#c656c1;}.cls-51{fill:#c555c1;}.cls-52{fill:#c454c1;}.cls-53{fill:#c353c1;}.cls-54{fill:#c352c0;}.cls-55{fill:#c251c0;}.cls-56{fill:#c150c0;}.cls-57{fill:#c04fbf;}.cls-58{fill:#bf4ebf;}.cls-59{fill:#be4dbf;}.cls-60{fill:#bd4cbf;}.cls-61{fill:#bc4bbe;}.cls-62{fill:#bc4abe;}.cls-63{fill:#bb49be;}.cls-64{fill:#ba48be;}.cls-65{fill:#b947bd;}.cls-66{fill:#b846bd;}.cls-67{fill:#b745bd;}.cls-68{fill:#b644bd;}.cls-69{fill:#b643bc;}.cls-70{fill:#b542bc;}.cls-71{fill:#b441bc;}.cls-72{fill:#b340bb;}.cls-73{fill:#b23fbb;}.cls-74{fill:#b13ebb;}.cls-75{fill:#b03dbb;}.cls-76{fill:#af3cba;}.cls-77{fill:#af3bba;}.cls-78{fill:#ae3aba;}.cls-79{fill:#ad39ba;}.cls-80{fill:#ac38b9;}.cls-81{fill:#ab37b9;}.cls-82{fill:#aa36b9;}.cls-83{fill:#a935b8;}.cls-84{fill:#a834b8;}.cls-85{fill:#a833b8;}.cls-86{fill:#a732b8;}.cls-87{fill:#a631b7;}.cls-88{fill:#a530b7;}.cls-89{fill:#a42fb7;}.cls-90{fill:#a32eb7;}.cls-91{fill:#a22db6;}.cls-92{fill:#a12cb6;}.cls-93{fill:#a12bb6;}.cls-94{fill:#a02ab6;}.cls-95{fill:#9f29b5;}.cls-96{fill:#9e28b5;}.cls-97{fill:#9e005d;}.cls-98{fill:#a1007d;}.cls-99{fill:#b14fc5;}.cls-100{fill:#870064;}.cls-101{fill:#df3faf;}.cls-102{fill:#c028b9;}.cls-103{fill:#e79cda;}.cls-104{fill:#b4008d;}.cls-105{fill:#7e57c5;}.cls-106{fill:#773dbd;}.cls-107{fill:#60269e;}.cls-108{fill:#993dbb;}.cls-109{fill:#655dc6;}.cls-110{fill:#9578d3;}.cls-111{fill:#410099;}.cls-112{fill:#a05cbf;}.cls-113{fill:#9164cc;}.cls-114{clip-path:url(#clip-path-2);}.cls-115{fill:#e95ebe;}.cls-116{fill:#e95fbe;}.cls-117{fill:#e960bf;}.cls-118{fill:#e961bf;}.cls-119{fill:#e962c0;}.cls-120{fill:#ea63c0;}.cls-121{fill:#ea64c0;}.cls-122{fill:#ea65c1;}.cls-123{fill:#ea66c1;}.cls-124{fill:#ea67c2;}.cls-125{fill:#ea68c2;}.cls-126{fill:#ea69c3;}.cls-127{fill:#ea6ac3;}.cls-128{fill:#eb6bc3;}.cls-129{fill:#eb6cc4;}.cls-130{fill:#eb6dc4;}.cls-131{fill:#eb6ec5;}.cls-132{fill:#eb6fc5;}.cls-133{fill:#eb70c5;}.cls-134{fill:#eb71c6;}.cls-135{fill:#eb72c6;}.cls-136{fill:#ec73c7;}.cls-137{fill:#ec74c7;}.cls-138{fill:#ec75c7;}.cls-139{fill:#ec76c8;}.cls-140{fill:#ec77c8;}.cls-141{fill:#ec78c9;}.cls-142{fill:#ec79c9;}.cls-143{fill:#ec7aca;}.cls-144{fill:#ed7bca;}.cls-145{fill:#ed7cca;}.cls-146{fill:#ed7dcb;}.cls-147{fill:#ed7ecb;}.cls-148{fill:#ed7fcc;}.cls-149{fill:#ed80cc;}.cls-150{fill:#ed81cc;}.cls-151{fill:#ed82cd;}.cls-152{fill:#ee84cd;}.cls-153{fill:#ee86ce;}.cls-154{fill:#ee87ce;}.cls-155{fill:#ee88cf;}.cls-156{fill:#ee89cf;}.cls-157{fill:#ee8ad0;}.cls-158{fill:#ee8bd0;}.cls-159{fill:#ef8cd0;}.cls-160{fill:#ef8dd1;}.cls-161{fill:#ef8ed1;}.cls-162{fill:#ef8fd2;}.cls-163{fill:#ef90d2;}.cls-164{fill:#ef91d3;}.cls-165{fill:#ef92d3;}.cls-166{fill:#ef93d3;}.cls-167{fill:#f094d4;}.cls-168{fill:#f095d4;}.cls-169{fill:#f096d5;}.cls-170{fill:#f097d5;}.cls-171{fill:#f098d5;}.cls-172{fill:#f099d6;}.cls-173{fill:#f09ad6;}.cls-174{fill:#f09bd7;}.cls-175{fill:#f19cd7;}.cls-176{fill:#f19dd7;}.cls-177{fill:#f19ed8;}.cls-178{fill:#f19fd8;}.cls-179{fill:#f1a0d9;}.cls-180{fill:#f1a1d9;}.cls-181{fill:#f1a2da;}.cls-182{fill:#f1a3da;}.cls-183{fill:#f2a4da;}.cls-184{fill:#f2a5db;}.cls-185{fill:#f2a6db;}.cls-186{fill:#f2a7dc;}.cls-187{fill:#f2a8dc;}.cls-188{clip-path:url(#clip-path-3);}.cls-189{fill:#880065;}.cls-190{fill:#890066;}.cls-191{fill:#8a0066;}.cls-192{fill:#8a0067;}.cls-193{fill:#8b0068;}.cls-194{fill:#8c0068;}.cls-195{fill:#8d0069;}.cls-196{fill:#8d006a;}.cls-197{fill:#8e006b;}.cls-198{fill:#8f006b;}.cls-199{fill:#90006c;}.cls-200{fill:#91006d;}.cls-201{fill:#92006e;}.cls-202{fill:#93006f;}.cls-203{fill:#940070;}.cls-204{fill:#950071;}.cls-205{fill:#960072;}.cls-206{fill:#970073;}.cls-207{fill:#980074;}.cls-208{fill:#990075;}.cls-209{fill:#9a0076;}.cls-210{fill:#9c0077;}.cls-211{fill:#9d0078;}.cls-212{fill:#9e0079;}.cls-213{fill:#9f007a;}.cls-214{fill:#a0007b;}.cls-215{fill:#a2007c;}.cls-216{fill:#a3007d;}.cls-217{fill:#a4007e;}.cls-218{fill:#a5007f;}.cls-219{fill:#a70081;}.cls-220{fill:#a80082;}.cls-221{fill:#a90083;}.cls-222{fill:#ab0084;}.cls-223{fill:#ac0085;}.cls-224{fill:#ad0087;}.cls-225{fill:#af0088;}.cls-226{fill:#b00089;}.cls-227{fill:#b1008a;}.cls-228{fill:#b3008c;}.cls-229{fill:#b3008d;}.cls-230{fill:#b2008b;}.cls-231{fill:#b1008b;}.cls-232{fill:#af0089;}.cls-233{fill:#ae0088;}.cls-234{fill:#ac0086;}.cls-235{fill:#ab0085;}.cls-236{fill:#a60080;}.cls-237{fill:#a3007e;}.cls-238{fill:#a1007c;}.cls-239{fill:#9b0077;}.cls-240{fill:#980073;}.cls-241{fill:#880165;}.cls-242{fill:#880265;}.cls-243{fill:#890266;}.cls-244{fill:#890366;}.cls-245{fill:#890367;}.cls-246{fill:#8a0467;}.cls-247{fill:#8b0568;}.cls-248{fill:#8b0668;}.cls-249{fill:#8c0669;}.cls-250{fill:#8c0769;}.cls-251{fill:#8d076a;}.cls-252{fill:#8d086a;}.cls-253{fill:#8d086b;}.cls-254{fill:#8e096b;}.cls-255{fill:#8e0a6c;}.cls-256{fill:#8f0a6c;}.cls-257{fill:#8f0b6d;}.cls-258{fill:#900c6d;}.cls-259{fill:#900c6e;}.cls-260{fill:#910d6e;}.cls-261{fill:#920e6f;}.cls-262{fill:#930f70;}.cls-263{fill:#931070;}.cls-264{fill:#941071;}.cls-265{fill:#941172;}.cls-266{fill:#951272;}.cls-267{fill:#961373;}.cls-268{fill:#961473;}.cls-269{fill:#971474;}.cls-270{fill:#971575;}.cls-271{fill:#981675;}.cls-272{fill:#991776;}.cls-273{fill:#991877;}.cls-274{fill:#9a1977;}.cls-275{fill:#9b1978;}.cls-276{fill:#9b1a79;}.cls-277{fill:#9c1b79;}.cls-278{fill:#9d1c7a;}.cls-279{fill:#9d1d7b;}.cls-280{fill:#9e1e7c;}.cls-281{fill:#9f1f7c;}.cls-282{fill:#a0207d;}.cls-283{fill:#a0217e;}.cls-284{fill:#a1227f;}.cls-285{fill:#a2237f;}.cls-286{fill:#a32480;}.cls-287{fill:#a32581;}.cls-288{fill:#a42682;}.cls-289{fill:#a52682;}.cls-290{fill:#a62783;}.cls-291{fill:#a62984;}.cls-292{fill:#a72a85;}.cls-293{fill:#a82b86;}.cls-294{fill:#a92c86;}.cls-295{fill:#aa2d87;}.cls-296{fill:#aa2e88;}.cls-297{fill:#ab2f89;}.cls-298{fill:#ac308a;}.cls-299{fill:#ad318b;}.cls-300{fill:#ae328c;}.cls-301{fill:#af338c;}.cls-302{fill:#af348d;}.cls-303{fill:#b0358e;}.cls-304{fill:#b1368f;}.cls-305{fill:#b23890;}.cls-306{fill:#b33991;}.cls-307{fill:#b43a92;}.cls-308{fill:#b53b93;}.cls-309{fill:#b63c94;}.cls-310{fill:#b73d94;}.cls-311{fill:#b73e95;}.cls-312{fill:#b84096;}.cls-313{fill:#b94197;}.cls-314{fill:#ba4298;}.cls-315{fill:#bb4399;}.cls-316{fill:#bc449a;}.cls-317{fill:#bd469b;}.cls-318{fill:#be479c;}.cls-319{fill:#bf489d;}.cls-320{fill:#c0499e;}.cls-321{fill:#c14b9f;}.cls-322{fill:#c24ca0;}.cls-323{fill:#c34da1;}.cls-324{fill:#c44ea2;}.cls-325{fill:#c550a3;}.cls-326{fill:#c651a4;}.cls-327{fill:#c752a5;}.cls-328{fill:#c853a6;}.cls-329{fill:#c955a7;}.cls-330{fill:#ca56a8;}.cls-331{fill:#cb57a9;}.cls-332{fill:#cc59aa;}.cls-333{fill:#cd5aab;}.cls-334{fill:#ce5bac;}.cls-335{fill:#cf5dad;}.cls-336{fill:#d05eae;}.cls-337{fill:#d15faf;}.cls-338{fill:#d261b0;}.cls-339{fill:#d362b2;}.cls-340{fill:#d463b3;}.cls-341{fill:#d565b4;}.cls-342{fill:#d666b5;}.cls-343{fill:#d767b6;}.cls-344{fill:#d869b7;}.cls-345{fill:#d96ab8;}.cls-346{fill:#db6cb9;}.cls-347{fill:#dc6dba;}.cls-348{fill:#dd6fbb;}.cls-349{fill:#de70bd;}.cls-350{fill:#df71be;}.cls-351{fill:#e073bf;}.cls-352{fill:#e174c0;}.cls-353{fill:#e276c1;}.cls-354{fill:#e377c2;}.cls-355{fill:#e579c3;}.cls-356{fill:#e67ac5;}.cls-357{fill:#e77cc6;}.cls-358{fill:#e87dc7;}.cls-359{fill:#e97fc8;}.cls-360{fill:#ea80c9;}.cls-361{fill:#eb81ca;}.cls-362{fill:#ed83cc;}.cls-363{fill:#ce009f;}.cls-364{fill:#752157;}.cls-365{fill:#9d1d64;}.cls-366{opacity:0.7;}.cls-367{fill:#f7931e;}.cls-368{fill:#fdff9f;}.cls-369{opacity:0.5;}</style><clipPath id="clip-path"><rect class="cls-1" y="1" width="1920" height="1082"/></clipPath><clipPath id="clip-path-2"><ellipse class="cls-1" cx="1610" cy="238.5" rx="105" ry="96.5"/></clipPath><clipPath id="clip-path-3"><circle class="cls-1" cx="1043.5" cy="535.5" r="69.5"/></clipPath></defs><g class="cls-2"><rect class="cls-3" y="1071.49" width="1920" height="11.51"/><rect class="cls-4" y="1059.98" width="1920" height="11.51"/><rect class="cls-5" y="1048.47" width="1920" height="11.51"/><rect class="cls-6" y="1036.96" width="1920" height="11.51"/><rect class="cls-7" y="1025.45" width="1920" height="11.51"/><rect class="cls-8" y="1013.94" width="1920" height="11.51"/><rect class="cls-9" y="1002.43" width="1920" height="11.51"/><rect class="cls-10" y="990.91" width="1920" height="11.51"/><rect class="cls-11" y="979.4" width="1920" height="11.51"/><rect class="cls-12" y="967.89" width="1920" height="11.51"/><rect class="cls-13" y="956.38" width="1920" height="11.51"/><rect class="cls-14" y="944.87" width="1920" height="11.51"/><rect class="cls-15" y="933.36" width="1920" height="11.51"/><rect class="cls-16" y="921.85" width="1920" height="11.51"/><rect class="cls-17" y="910.34" width="1920" height="11.51"/><rect class="cls-18" y="898.83" width="1920" height="11.51"/><rect class="cls-19" y="887.32" width="1920" height="11.51"/><rect class="cls-20" y="875.81" width="1920" height="11.51"/><rect class="cls-21" y="864.3" width="1920" height="11.51"/><rect class="cls-22" y="852.79" width="1920" height="11.51"/><rect class="cls-23" y="841.28" width="1920" height="11.51"/><rect class="cls-24" y="829.77" width="1920" height="11.51"/><rect class="cls-25" y="818.26" width="1920" height="11.51"/><rect class="cls-26" y="806.74" width="1920" height="11.51"/><rect class="cls-27" y="795.23" width="1920" height="11.51"/><rect class="cls-28" y="783.72" width="1920" height="11.51"/><rect class="cls-29" y="772.21" width="1920" height="11.51"/><rect class="cls-30" y="760.7" width="1920" height="11.51"/><rect class="cls-31" y="749.19" width="1920" height="11.51"/><rect class="cls-32" y="737.68" width="1920" height="11.51"/><rect class="cls-33" y="726.17" width="1920" height="11.51"/><rect class="cls-34" y="714.66" width="1920" height="11.51"/><rect class="cls-35" y="703.15" width="1920" height="11.51"/><rect class="cls-36" y="691.64" width="1920" height="11.51"/><rect class="cls-37" y="680.13" width="1920" height="11.51"/><rect class="cls-38" y="668.62" width="1920" height="11.51"/><rect class="cls-39" y="657.11" width="1920" height="11.51"/><rect class="cls-40" y="645.6" width="1920" height="11.51"/><rect class="cls-41" y="634.09" width="1920" height="11.51"/><rect class="cls-42" y="622.57" width="1920" height="11.51"/><rect class="cls-43" y="611.06" width="1920" height="11.51"/><rect class="cls-44" y="599.55" width="1920" height="11.51"/><rect class="cls-45" y="588.04" width="1920" height="11.51"/><rect class="cls-46" y="576.53" width="1920" height="11.51"/><rect class="cls-47" y="565.02" width="1920" height="11.51"/><rect class="cls-48" y="553.51" width="1920" height="11.51"/><rect class="cls-49" y="542" width="1920" height="11.51"/><rect class="cls-50" y="530.49" width="1920" height="11.51"/><rect class="cls-51" y="518.98" width="1920" height="11.51"/><rect class="cls-52" y="507.47" width="1920" height="11.51"/><rect class="cls-53" y="495.96" width="1920" height="11.51"/><rect class="cls-54" y="484.45" width="1920" height="11.51"/><rect class="cls-55" y="472.94" width="1920" height="11.51"/><rect class="cls-56" y="461.43" width="1920" height="11.51"/><rect class="cls-57" y="449.91" width="1920" height="11.51"/><rect class="cls-58" y="438.4" width="1920" height="11.51"/><rect class="cls-59" y="426.89" width="1920" height="11.51"/><rect class="cls-60" y="415.38" width="1920" height="11.51"/><rect class="cls-61" y="403.87" width="1920" height="11.51"/><rect class="cls-62" y="392.36" width="1920" height="11.51"/><rect class="cls-63" y="380.85" width="1920" height="11.51"/><rect class="cls-64" y="369.34" width="1920" height="11.51"/><rect class="cls-65" y="357.83" width="1920" height="11.51"/><rect class="cls-66" y="346.32" width="1920" height="11.51"/><rect class="cls-67" y="334.81" width="1920" height="11.51"/><rect class="cls-68" y="323.3" width="1920" height="11.51"/><rect class="cls-69" y="311.79" width="1920" height="11.51"/><rect class="cls-70" y="300.28" width="1920" height="11.51"/><rect class="cls-71" y="288.77" width="1920" height="11.51"/><rect class="cls-72" y="277.26" width="1920" height="11.51"/><rect class="cls-73" y="265.74" width="1920" height="11.51"/><rect class="cls-74" y="254.23" width="1920" height="11.51"/><rect class="cls-75" y="242.72" width="1920" height="11.51"/><rect class="cls-76" y="231.21" width="1920" height="11.51"/><rect class="cls-77" y="219.7" width="1920" height="11.51"/><rect class="cls-78" y="208.19" width="1920" height="11.51"/><rect class="cls-79" y="196.68" width="1920" height="11.51"/><rect class="cls-80" y="185.17" width="1920" height="11.51"/><rect class="cls-81" y="173.66" width="1920" height="11.51"/><rect class="cls-82" y="162.15" width="1920" height="11.51"/><rect class="cls-83" y="150.64" width="1920" height="11.51"/><rect class="cls-84" y="139.13" width="1920" height="11.51"/><rect class="cls-85" y="127.62" width="1920" height="11.51"/><rect class="cls-86" y="116.11" width="1920" height="11.51"/><rect class="cls-87" y="104.6" width="1920" height="11.51"/><rect class="cls-88" y="93.09" width="1920" height="11.51"/><rect class="cls-89" y="81.57" width="1920" height="11.51"/><rect class="cls-90" y="70.06" width="1920" height="11.51"/><rect class="cls-91" y="58.55" width="1920" height="11.51"/><rect class="cls-92" y="47.04" width="1920" height="11.51"/><rect class="cls-93" y="35.53" width="1920" height="11.51"/><rect class="cls-94" y="24.02" width="1920" height="11.51"/><rect class="cls-95" y="12.51" width="1920" height="11.51"/><rect class="cls-96" y="1" width="1920" height="11.51"/></g><path class="cls-97" d="M1850.18,594.36c-10.84,5.13-9.12,11.47-19.11,14.22-14.72,4.06-23.7-8.25-41.09-7.11-23.72,1.56-29.51,25.95-45.86,24.9-17.35-1.13-18-29-38.22-32-6.42-1-11.72,1.09-16.87,4.14a102,102,0,0,0,11.33,30.31,22,22,0,0,1,5.37-.31c8.91.54,7.93,5.17,19.42,7.82,18.09,4.18,37.3-3.42,43-5.69,7.14-2.82,8.76-4.49,13.18-4.26,13.16.68,24.83,16.83,22.2,21.33-2.4,4.11-14.27-5.53-35.38-3.55-18.59,1.74-20.83,10.27-35.38,8.53-10.79-1.29-14.53-6.58-21.41-8.18a99.86,99.86,0,0,0,23.22,20c17.1,1.91,41,4,66.47.3,6.4-.94,27.11-4.31,25-21.32-1.29-10.17-10-19.58-9.65-24.44.59-7.1,19.25,13.86,37.55,16.7,6.46,1,10.88-.57,14.57-3.31a102.06,102.06,0,0,0,14.63-40.94C1873.23,590.12,1860.64,589.41,1850.18,594.36Z"/><path class="cls-98" d="M1836.77,491.75a96.29,96.29,0,0,0-36.47-13.61c5.35,4.68,11.53,9.22,18.39,11.95C1825.76,492.9,1831.49,493,1836.77,491.75Z"/><path class="cls-98" d="M1821.69,573.05c-1.75-1.39,7-14.84,23.39-19,7.54-1.91,17.64-.46,36.73,2.71a102.19,102.19,0,0,0-5.33-17.53c-28.84-4-46.52,3.75-57.6,12.25-8.26,6.34-13.37,13.5-24.28,15.88-14.86,3.24-25.6-5.62-38.17-11.64-13.15-6.31-33.31-11.9-62.45-6.36-1.18.75-2.37,1.49-3.57,2.23A103.44,103.44,0,0,0,1687,578c0,2.71.11,5.4.31,8.06,21-9.17,38.09-23.27,50.12-18,9,3.92,4,13.75,15.29,19.21,9.15,4.43,19,1.12,44-3.56,35.23-6.6,53.72-9.9,73.58-5.69a86.42,86.42,0,0,1,13.66,4.09c.06-1.36.09-2.72.09-4.09a102.55,102.55,0,0,0-.65-11.56c-12-3.3-14.58-6.9-24.67-7C1837.6,559.19,1823.68,574.62,1821.69,573.05Z"/><path class="cls-99" d="M1781.72,488.71a27.41,27.41,0,0,0-.37-11.61,96.48,96.48,0,0,0-56.15,21c5.81,1.15,11.8,2.18,18,3C1751.31,502.28,1777.84,505.57,1781.72,488.71Z"/><path class="cls-100" d="M1761.64,538.79c20.27-5.15,25.79-12.87,47.7-13.76,15.88-.66,23.45,3,36.43,5.29A118.44,118.44,0,0,0,1873.2,532,101.12,101.12,0,0,0,1847,499.14c-33.49,5-32,21.65-65.32,22.78-32.12,1.09-47.89-13.94-74.6-5.09a101.9,101.9,0,0,0-11.55,19.9C1713.2,536.49,1730.81,546.62,1761.64,538.79Z"/><path class="cls-96" d="M1781.72,521.92c33.32-1.13,31.83-17.81,65.32-22.78a98.18,98.18,0,0,0-10.27-7.39c-5.28,1.22-11,1.15-18.08-1.66-6.86-2.73-13-7.27-18.39-11.95a96.28,96.28,0,0,0-14.8-1.14c-1.39,0-2.77,0-4.15.1a27.41,27.41,0,0,1,.37,11.61c-3.88,16.86-30.41,13.57-38.57,12.45-6.15-.84-12.14-1.87-18-3a100.38,100.38,0,0,0-18.08,18.69C1733.83,508,1749.6,523,1781.72,521.92Z"/><path class="cls-101" d="M1756.43,555.73c12.57,6,23.31,14.88,38.17,11.64,10.91-2.38,16-9.54,24.28-15.88,11.08-8.5,28.76-16.23,57.6-12.25-1-2.48-2.1-4.9-3.28-7.28a118.44,118.44,0,0,1-27.43-1.64c-13-2.32-20.55-6-36.43-5.29-21.91.89-27.43,8.61-47.7,13.76-30.83,7.83-48.44-2.3-66.07-2.06a102.81,102.81,0,0,0-5.16,14.87c1.2-.74,2.39-1.48,3.57-2.23C1723.12,543.83,1743.28,549.42,1756.43,555.73Z"/><path class="cls-96" d="M1768.16,644.15c21.11-2,33,7.66,35.38,3.55,2.63-4.5-9-20.65-22.2-21.33-4.42-.23-6,1.44-13.18,4.26-5.71,2.27-24.92,9.87-43,5.69-11.49-2.65-10.51-7.28-19.42-7.82a22,22,0,0,0-5.37.31,100.41,100.41,0,0,0,11,15.69c6.88,1.6,10.62,6.89,21.41,8.18C1747.33,654.42,1749.57,645.89,1768.16,644.15Z"/><path class="cls-102" d="M1796.67,583.69c-25,4.68-34.8,8-44,3.56-11.27-5.46-6.33-15.29-15.29-19.21-12-5.25-29.16,8.85-50.12,18A105.49,105.49,0,0,0,1689,598.5c5.15-3,10.45-5.09,16.87-4.14,20.2,3,20.87,30.88,38.22,32,16.35,1,22.14-23.34,45.86-24.9,17.39-1.14,26.37,11.17,41.09,7.11,10-2.75,8.27-9.09,19.11-14.22,10.46-5,23-4.24,33-2.89q.6-4.62.78-9.38a86.42,86.42,0,0,0-13.66-4.09C1850.39,573.79,1831.9,577.09,1796.67,583.69Z"/><path class="cls-103" d="M1845.08,554.06c-16.39,4.15-25.14,17.6-23.39,19,2,1.57,15.91-13.86,37-13.63,10.09.12,12.66,3.72,24.67,7-.36-3.27-.87-6.5-1.54-9.67C1862.72,553.6,1852.62,552.15,1845.08,554.06Z"/><path class="cls-104" d="M1853.93,635.72c-18.3-2.84-37-23.8-37.55-16.7-.4,4.86,8.36,14.27,9.65,24.44,2.14,17-18.57,20.38-25,21.32-25.48,3.71-49.37,1.61-66.47-.3A96.29,96.29,0,0,0,1785.5,679c34.86,0,65.49-18.57,83-46.59C1864.81,635.15,1860.39,636.72,1853.93,635.72Z"/><path class="cls-105" d="M1436.67,370.22a140.85,140.85,0,0,0-52.57-19.13c7.7,6.58,16.61,13,26.51,16.8C1420.8,371.85,1429.06,371.94,1436.67,370.22Z"/><path class="cls-106" d="M1357.31,366c1.26-5.34.6-11-.53-16.33a141.33,141.33,0,0,0-81,29.59c8.38,1.62,17,3.06,25.87,4.25C1313.47,385,1351.72,389.65,1357.31,366Z"/><path class="cls-107" d="M1456,514.49c-15.64,7.21-13.15,16.13-27.55,20-21.22,5.7-34.17-11.61-59.24-10-34.2,2.19-42.54,36.49-66.12,35-25-1.58-26-40.82-55.1-45-9.25-1.33-16.88,1.53-24.31,5.83A141.09,141.09,0,0,0,1240,562.93a32.08,32.08,0,0,1,7.74-.44c12.85.76,11.44,7.27,28,11,26.08,5.87,53.76-4.82,62-8,10.29-4,12.63-6.32,19-6,19,1,35.79,23.66,32,30-3.45,5.77-20.57-7.78-51-5-26.79,2.44-30,14.44-51,12-15.56-1.81-21-9.25-30.87-11.5a142.7,142.7,0,0,0,33.48,28.08c24.65,2.69,59.09,5.65,95.82.42,9.23-1.31,39.09-6.06,36-30-1.85-14.31-14.48-27.54-13.9-34.37.85-10,27.75,19.49,54.13,23.48,9.31,1.4,15.68-.8,21-4.65a141.16,141.16,0,0,0,21.09-57.56C1489.23,508.53,1471.09,507.53,1456,514.49Z"/><path class="cls-108" d="M1414.94,484.52c-2.53-1.94,10.09-20.86,33.71-26.69,10.87-2.68,25.43-.65,53,3.82a140.31,140.31,0,0,0-7.69-24.65c-41.57-5.6-67.07,5.27-83,17.22-11.92,8.91-19.28,19-35,22.32-21.41,4.56-36.89-7.9-55-16.37-19-8.86-48-16.73-90-8.93l-5.16,3.14a142.36,142.36,0,0,0-4.91,37.11c0,3.82.16,7.59.45,11.33,30.21-12.89,54.91-32.72,72.25-25.33,12.93,5.51,5.8,19.33,22,27,13.2,6.23,27.37,1.57,63.37-5,50.78-9.28,77.44-13.92,106.06-8a126.58,126.58,0,0,1,19.7,5.75c.08-1.91.13-3.82.13-5.75a142.84,142.84,0,0,0-.93-16.25c-17.32-4.65-21-9.71-35.58-9.87C1437.87,465,1417.81,486.74,1414.94,484.52Z"/><path class="cls-109" d="M1328.36,436.36c29.22-7.24,37.19-18.09,68.77-19.35,22.89-.92,33.81,4.18,52.52,7.44a175.18,175.18,0,0,0,39.53,2.32,142.45,142.45,0,0,0-37.71-46.15c-48.27,7-46.12,30.44-94.16,32-46.31,1.53-69-19.59-107.54-7.15a141.72,141.72,0,0,0-16.65,28C1258.54,433.13,1283.92,447.37,1328.36,436.36Z"/><path class="cls-110" d="M1357.31,412.64c48-1.58,45.89-25,94.16-32a143,143,0,0,0-14.8-10.4c-7.61,1.72-15.87,1.63-26.06-2.33-9.9-3.83-18.81-10.22-26.51-16.8a143,143,0,0,0-21.34-1.6c-2,0-4,.05-6,.13,1.13,5.33,1.79,11,.53,16.33-5.59,23.7-43.84,19.08-55.61,17.51-8.85-1.19-17.49-2.63-25.87-4.25a142.83,142.83,0,0,0-26.06,26.28C1288.27,393.05,1311,414.17,1357.31,412.64Z"/><path class="cls-107" d="M1320.86,460.17c18.12,8.47,33.6,20.93,55,16.37,15.74-3.34,23.1-13.41,35-22.32,16-12,41.46-22.82,83-17.22-1.45-3.49-3-6.9-4.74-10.23a175.18,175.18,0,0,1-39.53-2.32c-18.71-3.26-29.63-8.36-52.52-7.44-31.58,1.26-39.55,12.11-68.77,19.35-44.44,11-69.82-3.23-95.24-2.89a141,141,0,0,0-7.45,20.91l5.16-3.14C1272.83,443.44,1301.89,451.31,1320.86,460.17Z"/><path class="cls-96" d="M1337.76,584.49c30.43-2.78,47.55,10.77,51,5,3.79-6.34-13-29-32-30-6.37-.32-8.71,2-19,6-8.24,3.18-35.92,13.87-62,8-16.56-3.73-15.15-10.24-28-11a32.08,32.08,0,0,0-7.74.44A143,143,0,0,0,1255.89,585c9.92,2.25,15.31,9.69,30.87,11.5C1307.73,598.93,1311,586.93,1337.76,584.49Z"/><path class="cls-111" d="M1378.87,499.49c-36,6.57-50.17,11.23-63.37,5-16.24-7.67-9.11-21.49-22-27-17.34-7.39-42,12.44-72.25,25.33a141.76,141.76,0,0,0,2.48,17.5c7.43-4.3,15.06-7.16,24.31-5.83,29.13,4.18,30.1,43.42,55.1,45,23.58,1.49,31.92-32.81,66.12-35,25.07-1.61,38,15.7,59.24,10,14.4-3.87,11.91-12.79,27.55-20,15.08-7,33.22-6,47.49-4.06q.87-6.51,1.13-13.19a126.58,126.58,0,0,0-19.7-5.75C1456.31,485.57,1429.65,490.21,1378.87,499.49Z"/><path class="cls-112" d="M1448.65,457.83c-23.62,5.83-36.24,24.75-33.71,26.69,2.87,2.22,22.93-19.48,53.31-19.15,14.55.16,18.26,5.22,35.58,9.87-.53-4.6-1.27-9.14-2.22-13.59C1474.08,457.18,1459.52,455.15,1448.65,457.83Z"/><path class="cls-113" d="M1461.41,572.64c-26.38-4-53.28-33.46-54.13-23.48-.58,6.83,12,20.06,13.9,34.37,3.1,23.9-26.76,28.65-36,30-36.73,5.23-71.17,2.27-95.82-.42a142.05,142.05,0,0,0,193-45.08C1477.09,571.84,1470.72,574,1461.41,572.64Z"/><g class="cls-114"><rect class="cls-115" x="1505" y="142" width="210" height="193"/><ellipse class="cls-115" cx="1610" cy="238.5" rx="105" ry="96.5"/><ellipse class="cls-116" cx="1610" cy="238.5" rx="103.58" ry="95.2"/><ellipse class="cls-117" cx="1610" cy="238.5" rx="102.16" ry="93.89"/><ellipse class="cls-118" cx="1610" cy="238.5" rx="100.74" ry="92.59"/><ellipse class="cls-119" cx="1610" cy="238.5" rx="99.32" ry="91.28"/><ellipse class="cls-120" cx="1610" cy="238.5" rx="97.91" ry="89.98"/><ellipse class="cls-121" cx="1610" cy="238.5" rx="96.49" ry="88.68"/><ellipse class="cls-122" cx="1610" cy="238.5" rx="95.07" ry="87.37"/><ellipse class="cls-123" cx="1610" cy="238.5" rx="93.65" ry="86.07"/><ellipse class="cls-124" cx="1610" cy="238.5" rx="92.23" ry="84.76"/><ellipse class="cls-125" cx="1610" cy="238.5" rx="90.81" ry="83.46"/><ellipse class="cls-126" cx="1610" cy="238.5" rx="89.39" ry="82.16"/><ellipse class="cls-127" cx="1610" cy="238.5" rx="87.97" ry="80.85"/><ellipse class="cls-128" cx="1610" cy="238.5" rx="86.55" ry="79.55"/><ellipse class="cls-129" cx="1610" cy="238.5" rx="85.14" ry="78.24"/><ellipse class="cls-130" cx="1610" cy="238.5" rx="83.72" ry="76.94"/><ellipse class="cls-131" cx="1610" cy="238.5" rx="82.3" ry="75.64"/><ellipse class="cls-132" cx="1610" cy="238.5" rx="80.88" ry="74.33"/><ellipse class="cls-133" cx="1610" cy="238.5" rx="79.46" ry="73.03"/><ellipse class="cls-134" cx="1610" cy="238.5" rx="78.04" ry="71.72"/><ellipse class="cls-135" cx="1610" cy="238.5" rx="76.62" ry="70.42"/><ellipse class="cls-136" cx="1610" cy="238.5" rx="75.2" ry="69.11"/><ellipse class="cls-137" cx="1610" cy="238.5" rx="73.78" ry="67.81"/><ellipse class="cls-138" cx="1610" cy="238.5" rx="72.36" ry="66.51"/><ellipse class="cls-139" cx="1610" cy="238.5" rx="70.95" ry="65.2"/><ellipse class="cls-140" cx="1610" cy="238.5" rx="69.53" ry="63.9"/><ellipse class="cls-141" cx="1610" cy="238.5" rx="68.11" ry="62.59"/><ellipse class="cls-142" cx="1610" cy="238.5" rx="66.69" ry="61.29"/><ellipse class="cls-143" cx="1610" cy="238.5" rx="65.27" ry="59.99"/><ellipse class="cls-144" cx="1610" cy="238.5" rx="63.85" ry="58.68"/><ellipse class="cls-145" cx="1610" cy="238.5" rx="62.43" ry="57.38"/><ellipse class="cls-146" cx="1610" cy="238.5" rx="61.01" ry="56.07"/><ellipse class="cls-147" cx="1610" cy="238.5" rx="59.59" ry="54.77"/><ellipse class="cls-148" cx="1610" cy="238.5" rx="58.18" ry="53.47"/><ellipse class="cls-149" cx="1610" cy="238.5" rx="56.76" ry="52.16"/><ellipse class="cls-150" cx="1610" cy="238.5" rx="55.34" ry="50.86"/><ellipse class="cls-151" cx="1610" cy="238.5" rx="53.92" ry="49.55"/><ellipse class="cls-152" cx="1610" cy="238.5" rx="52.5" ry="48.25"/><ellipse class="cls-4" cx="1610" cy="238.5" rx="51.08" ry="46.95"/><ellipse class="cls-153" cx="1610" cy="238.5" rx="49.66" ry="45.64"/><ellipse class="cls-154" cx="1610" cy="238.5" rx="48.24" ry="44.34"/><ellipse class="cls-155" cx="1610" cy="238.5" rx="46.82" ry="43.03"/><ellipse class="cls-156" cx="1610" cy="238.5" rx="45.41" ry="41.73"/><ellipse class="cls-157" cx="1610" cy="238.5" rx="43.99" ry="40.43"/><ellipse class="cls-158" cx="1610" cy="238.5" rx="42.57" ry="39.12"/><ellipse class="cls-159" cx="1610" cy="238.5" rx="41.15" ry="37.82"/><ellipse class="cls-160" cx="1610" cy="238.5" rx="39.73" ry="36.51"/><ellipse class="cls-161" cx="1610" cy="238.5" rx="38.31" ry="35.21"/><ellipse class="cls-162" cx="1610" cy="238.5" rx="36.89" ry="33.91"/><ellipse class="cls-163" cx="1610" cy="238.5" rx="35.47" ry="32.6"/><ellipse class="cls-164" cx="1610" cy="238.5" rx="34.05" ry="31.3"/><ellipse class="cls-165" cx="1610" cy="238.5" rx="32.64" ry="29.99"/><ellipse class="cls-166" cx="1610" cy="238.5" rx="31.22" ry="28.69"/><ellipse class="cls-167" cx="1610" cy="238.5" rx="29.8" ry="27.39"/><ellipse class="cls-168" cx="1610" cy="238.5" rx="28.38" ry="26.08"/><ellipse class="cls-169" cx="1610" cy="238.5" rx="26.96" ry="24.78"/><ellipse class="cls-170" cx="1610" cy="238.5" rx="25.54" ry="23.47"/><ellipse class="cls-171" cx="1610" cy="238.5" rx="24.12" ry="22.17"/><ellipse class="cls-172" cx="1610" cy="238.5" rx="22.7" ry="20.86"/><ellipse class="cls-173" cx="1610" cy="238.5" rx="21.28" ry="19.56"/><ellipse class="cls-174" cx="1610" cy="238.5" rx="19.86" ry="18.26"/><ellipse class="cls-175" cx="1610" cy="238.5" rx="18.45" ry="16.95"/><ellipse class="cls-176" cx="1610" cy="238.5" rx="17.03" ry="15.65"/><ellipse class="cls-177" cx="1610" cy="238.5" rx="15.61" ry="14.34"/><ellipse class="cls-178" cx="1610" cy="238.5" rx="14.19" ry="13.04"/><ellipse class="cls-179" cx="1610" cy="238.5" rx="12.77" ry="11.74"/><ellipse class="cls-180" cx="1610" cy="238.5" rx="11.35" ry="10.43"/><ellipse class="cls-181" cx="1610" cy="238.5" rx="9.93" ry="9.13"/><ellipse class="cls-182" cx="1610" cy="238.5" rx="8.51" ry="7.82"/><ellipse class="cls-183" cx="1610" cy="238.5" rx="7.09" ry="6.52"/><ellipse class="cls-184" cx="1610" cy="238.5" rx="5.68" ry="5.22"/><ellipse class="cls-185" cx="1610" cy="238.5" rx="4.26" ry="3.91"/><ellipse class="cls-186" cx="1610" cy="238.5" rx="2.84" ry="2.61"/><ellipse class="cls-187" cx="1610" cy="238.5" rx="1.42" ry="1.3"/></g><g class="cls-188"><rect class="cls-100" x="974" y="466" width="139" height="139"/><circle class="cls-100" cx="1043.5" cy="535.5" r="69.5"/><circle class="cls-100" cx="1043.5" cy="535.5" r="69.03"/><circle class="cls-189" cx="1043.5" cy="535.5" r="68.56"/><circle class="cls-189" cx="1043.5" cy="535.5" r="68.09"/><circle class="cls-190" cx="1043.5" cy="535.5" r="67.62"/><circle class="cls-191" cx="1043.5" cy="535.5" r="67.15"/><circle class="cls-192" cx="1043.5" cy="535.5" r="66.68"/><circle class="cls-193" cx="1043.5" cy="535.5" r="66.21"/><circle class="cls-194" cx="1043.5" cy="535.5" r="65.74"/><circle class="cls-195" cx="1043.5" cy="535.5" r="65.26"/><circle class="cls-196" cx="1043.5" cy="535.5" r="64.79"/><circle class="cls-197" cx="1043.5" cy="535.5" r="64.32"/><circle class="cls-198" cx="1043.5" cy="535.5" r="63.85"/><circle class="cls-199" cx="1043.5" cy="535.5" r="63.38"/><circle class="cls-200" cx="1043.5" cy="535.5" r="62.91"/><circle class="cls-201" cx="1043.5" cy="535.5" r="62.44"/><circle class="cls-202" cx="1043.5" cy="535.5" r="61.97"/><circle class="cls-203" cx="1043.5" cy="535.5" r="61.5"/><circle class="cls-204" cx="1043.5" cy="535.5" r="61.03"/><circle class="cls-205" cx="1043.5" cy="535.5" r="60.56"/><circle class="cls-206" cx="1043.5" cy="535.5" r="60.09"/><circle class="cls-207" cx="1043.5" cy="535.5" r="59.62"/><circle class="cls-208" cx="1043.5" cy="535.5" r="59.15"/><circle class="cls-209" cx="1043.5" cy="535.5" r="58.68"/><circle class="cls-210" cx="1043.5" cy="535.5" r="58.21"/><circle class="cls-211" cx="1043.5" cy="535.5" r="57.73"/><circle class="cls-212" cx="1043.5" cy="535.5" r="57.26"/><circle class="cls-213" cx="1043.5" cy="535.5" r="56.79"/><circle class="cls-214" cx="1043.5" cy="535.5" r="56.32"/><circle class="cls-215" cx="1043.5" cy="535.5" r="55.85"/><circle class="cls-216" cx="1043.5" cy="535.5" r="55.38"/><circle class="cls-217" cx="1043.5" cy="535.5" r="54.91"/><circle class="cls-218" cx="1043.5" cy="535.5" r="54.44"/><circle class="cls-219" cx="1043.5" cy="535.5" r="53.97"/><circle class="cls-220" cx="1043.5" cy="535.5" r="53.5"/><circle class="cls-221" cx="1043.5" cy="535.5" r="53.03"/><circle class="cls-222" cx="1043.5" cy="535.5" r="52.56"/><circle class="cls-223" cx="1043.5" cy="535.5" r="52.09"/><circle class="cls-224" cx="1043.5" cy="535.5" r="51.62"/><circle class="cls-225" cx="1043.5" cy="535.5" r="51.15"/><circle class="cls-226" cx="1043.5" cy="535.5" r="50.68"/><circle class="cls-226" cx="1043.5" cy="535.5" r="50.21"/><circle class="cls-227" cx="1043.5" cy="535.5" r="47.28"/><circle class="cls-228" cx="1043.5" cy="535.5" r="44.36"/><circle class="cls-104" cx="1043.5" cy="535.5" r="41.44"/><circle class="cls-104" cx="1043.5" cy="535.5" r="38.52"/><circle class="cls-104" cx="1043.5" cy="535.5" r="38.1"/><circle class="cls-104" cx="1043.5" cy="535.5" r="37.69"/><circle class="cls-104" cx="1043.5" cy="535.5" r="37.28"/><circle class="cls-104" cx="1043.5" cy="535.5" r="36.87"/><circle class="cls-104" cx="1043.5" cy="535.5" r="36.45"/><circle class="cls-104" cx="1043.5" cy="535.5" r="36.04"/><circle class="cls-104" cx="1043.5" cy="535.5" r="35.63"/><circle class="cls-104" cx="1043.5" cy="535.5" r="35.21"/><circle class="cls-104" cx="1043.5" cy="535.5" r="34.8"/><circle class="cls-104" cx="1043.5" cy="535.5" r="34.39"/><circle class="cls-104" cx="1043.5" cy="535.5" r="33.98"/><circle class="cls-104" cx="1043.5" cy="535.5" r="33.56"/><circle class="cls-104" cx="1043.5" cy="535.5" r="33.15"/><circle class="cls-104" cx="1043.5" cy="535.5" r="32.74"/><circle class="cls-104" cx="1043.5" cy="535.5" r="32.33"/><circle class="cls-104" cx="1043.5" cy="535.5" r="31.91"/><circle class="cls-104" cx="1043.5" cy="535.5" r="31.5"/><circle class="cls-229" cx="1043.5" cy="535.5" r="31.09"/><circle class="cls-228" cx="1043.5" cy="535.5" r="30.67"/><circle class="cls-228" cx="1043.5" cy="535.5" r="30.26"/><circle class="cls-228" cx="1043.5" cy="535.5" r="29.85"/><circle class="cls-228" cx="1043.5" cy="535.5" r="29.44"/><circle class="cls-230" cx="1043.5" cy="535.5" r="29.02"/><circle class="cls-230" cx="1043.5" cy="535.5" r="28.61"/><circle class="cls-231" cx="1043.5" cy="535.5" r="28.2"/><circle class="cls-227" cx="1043.5" cy="535.5" r="27.78"/><circle class="cls-226" cx="1043.5" cy="535.5" r="27.37"/><circle class="cls-232" cx="1043.5" cy="535.5" r="26.96"/><circle class="cls-233" cx="1043.5" cy="535.5" r="26.55"/><circle class="cls-224" cx="1043.5" cy="535.5" r="26.13"/><circle class="cls-234" cx="1043.5" cy="535.5" r="25.72"/><circle class="cls-235" cx="1043.5" cy="535.5" r="25.31"/><circle class="cls-221" cx="1043.5" cy="535.5" r="24.9"/><circle class="cls-220" cx="1043.5" cy="535.5" r="24.48"/><circle class="cls-236" cx="1043.5" cy="535.5" r="24.07"/><circle class="cls-237" cx="1043.5" cy="535.5" r="23.66"/><circle class="cls-238" cx="1043.5" cy="535.5" r="23.24"/><circle class="cls-212" cx="1043.5" cy="535.5" r="22.83"/><circle class="cls-239" cx="1043.5" cy="535.5" r="22.42"/><circle class="cls-240" cx="1043.5" cy="535.5" r="22.01"/><circle class="cls-203" cx="1043.5" cy="535.5" r="21.59"/><circle class="cls-199" cx="1043.5" cy="535.5" r="21.18"/><circle class="cls-194" cx="1043.5" cy="535.5" r="20.77"/><circle class="cls-100" cx="1043.5" cy="535.5" r="20.36"/><circle class="cls-100" cx="1043.5" cy="535.5" r="19.94"/><circle class="cls-100" cx="1043.5" cy="535.5" r="19.79"/><circle class="cls-100" cx="1043.5" cy="535.5" r="19.64"/><circle class="cls-100" cx="1043.5" cy="535.5" r="19.5"/><circle class="cls-241" cx="1043.5" cy="535.5" r="19.35"/><circle class="cls-241" cx="1043.5" cy="535.5" r="19.2"/><circle class="cls-241" cx="1043.5" cy="535.5" r="19.05"/><circle class="cls-242" cx="1043.5" cy="535.5" r="18.9"/><circle class="cls-243" cx="1043.5" cy="535.5" r="18.75"/><circle class="cls-243" cx="1043.5" cy="535.5" r="18.6"/><circle class="cls-244" cx="1043.5" cy="535.5" r="18.45"/><circle class="cls-245" cx="1043.5" cy="535.5" r="18.31"/><circle class="cls-246" cx="1043.5" cy="535.5" r="18.16"/><circle class="cls-246" cx="1043.5" cy="535.5" r="18.01"/><circle class="cls-247" cx="1043.5" cy="535.5" r="17.86"/><circle class="cls-247" cx="1043.5" cy="535.5" r="17.71"/><circle class="cls-248" cx="1043.5" cy="535.5" r="17.56"/><circle class="cls-249" cx="1043.5" cy="535.5" r="17.41"/><circle class="cls-250" cx="1043.5" cy="535.5" r="17.26"/><circle class="cls-251" cx="1043.5" cy="535.5" r="17.11"/><circle class="cls-252" cx="1043.5" cy="535.5" r="16.97"/><circle class="cls-253" cx="1043.5" cy="535.5" r="16.82"/><circle class="cls-254" cx="1043.5" cy="535.5" r="16.67"/><circle class="cls-255" cx="1043.5" cy="535.5" r="16.52"/><circle class="cls-256" cx="1043.5" cy="535.5" r="16.37"/><circle class="cls-257" cx="1043.5" cy="535.5" r="16.22"/><circle class="cls-258" cx="1043.5" cy="535.5" r="16.07"/><circle class="cls-259" cx="1043.5" cy="535.5" r="15.92"/><circle class="cls-260" cx="1043.5" cy="535.5" r="15.78"/><circle class="cls-261" cx="1043.5" cy="535.5" r="15.63"/><circle class="cls-261" cx="1043.5" cy="535.5" r="15.48"/><circle class="cls-262" cx="1043.5" cy="535.5" r="15.33"/><circle class="cls-263" cx="1043.5" cy="535.5" r="15.18"/><circle class="cls-264" cx="1043.5" cy="535.5" r="15.03"/><circle class="cls-265" cx="1043.5" cy="535.5" r="14.88"/><circle class="cls-266" cx="1043.5" cy="535.5" r="14.73"/><circle class="cls-267" cx="1043.5" cy="535.5" r="14.58"/><circle class="cls-268" cx="1043.5" cy="535.5" r="14.44"/><circle class="cls-269" cx="1043.5" cy="535.5" r="14.29"/><circle class="cls-270" cx="1043.5" cy="535.5" r="14.14"/><circle class="cls-271" cx="1043.5" cy="535.5" r="13.99"/><circle class="cls-272" cx="1043.5" cy="535.5" r="13.84"/><circle class="cls-273" cx="1043.5" cy="535.5" r="13.69"/><circle class="cls-274" cx="1043.5" cy="535.5" r="13.54"/><circle class="cls-275" cx="1043.5" cy="535.5" r="13.39"/><circle class="cls-276" cx="1043.5" cy="535.5" r="13.25"/><circle class="cls-277" cx="1043.5" cy="535.5" r="13.1"/><circle class="cls-278" cx="1043.5" cy="535.5" r="12.95"/><circle class="cls-279" cx="1043.5" cy="535.5" r="12.8"/><circle class="cls-280" cx="1043.5" cy="535.5" r="12.65"/><circle class="cls-281" cx="1043.5" cy="535.5" r="12.5"/><circle class="cls-282" cx="1043.5" cy="535.5" r="12.35"/><circle class="cls-283" cx="1043.5" cy="535.5" r="12.2"/><circle class="cls-284" cx="1043.5" cy="535.5" r="12.05"/><circle class="cls-285" cx="1043.5" cy="535.5" r="11.91"/><circle class="cls-286" cx="1043.5" cy="535.5" r="11.76"/><circle class="cls-287" cx="1043.5" cy="535.5" r="11.61"/><circle class="cls-288" cx="1043.5" cy="535.5" r="11.46"/><circle class="cls-289" cx="1043.5" cy="535.5" r="11.31"/><circle class="cls-290" cx="1043.5" cy="535.5" r="11.16"/><circle class="cls-291" cx="1043.5" cy="535.5" r="11.01"/><circle class="cls-292" cx="1043.5" cy="535.5" r="10.86"/><circle class="cls-293" cx="1043.5" cy="535.5" r="10.72"/><circle class="cls-294" cx="1043.5" cy="535.5" r="10.57"/><circle class="cls-295" cx="1043.5" cy="535.5" r="10.42"/><circle class="cls-296" cx="1043.5" cy="535.5" r="10.27"/><circle class="cls-297" cx="1043.5" cy="535.5" r="10.12"/><circle class="cls-298" cx="1043.5" cy="535.5" r="9.97"/><circle class="cls-299" cx="1043.5" cy="535.5" r="9.82"/><circle class="cls-300" cx="1043.5" cy="535.5" r="9.67"/><circle class="cls-301" cx="1043.5" cy="535.5" r="9.52"/><circle class="cls-302" cx="1043.5" cy="535.5" r="9.38"/><circle class="cls-303" cx="1043.5" cy="535.5" r="9.23"/><circle class="cls-304" cx="1043.5" cy="535.5" r="9.08"/><circle class="cls-305" cx="1043.5" cy="535.5" r="8.93"/><circle class="cls-306" cx="1043.5" cy="535.5" r="8.78"/><circle class="cls-307" cx="1043.5" cy="535.5" r="8.63"/><circle class="cls-308" cx="1043.5" cy="535.5" r="8.48"/><circle class="cls-309" cx="1043.5" cy="535.5" r="8.33"/><circle class="cls-310" cx="1043.5" cy="535.5" r="8.19"/><circle class="cls-311" cx="1043.5" cy="535.5" r="8.04"/><circle class="cls-312" cx="1043.5" cy="535.5" r="7.89"/><circle class="cls-313" cx="1043.5" cy="535.5" r="7.74"/><circle class="cls-314" cx="1043.5" cy="535.5" r="7.59"/><circle class="cls-315" cx="1043.5" cy="535.5" r="7.44"/><circle class="cls-316" cx="1043.5" cy="535.5" r="7.29"/><circle class="cls-317" cx="1043.5" cy="535.5" r="7.14"/><circle class="cls-318" cx="1043.5" cy="535.5" r="6.99"/><circle class="cls-319" cx="1043.5" cy="535.5" r="6.85"/><circle class="cls-320" cx="1043.5" cy="535.5" r="6.7"/><circle class="cls-321" cx="1043.5" cy="535.5" r="6.55"/><circle class="cls-322" cx="1043.5" cy="535.5" r="6.4"/><circle class="cls-323" cx="1043.5" cy="535.5" r="6.25"/><circle class="cls-324" cx="1043.5" cy="535.5" r="6.1"/><circle class="cls-325" cx="1043.5" cy="535.5" r="5.95"/><circle class="cls-326" cx="1043.5" cy="535.5" r="5.8"/><circle class="cls-327" cx="1043.5" cy="535.5" r="5.66"/><circle class="cls-328" cx="1043.5" cy="535.5" r="5.51"/><circle class="cls-329" cx="1043.5" cy="535.5" r="5.36"/><circle class="cls-330" cx="1043.5" cy="535.5" r="5.21"/><circle class="cls-331" cx="1043.5" cy="535.5" r="5.06"/><circle class="cls-332" cx="1043.5" cy="535.5" r="4.91"/><circle class="cls-333" cx="1043.5" cy="535.5" r="4.76"/><circle class="cls-334" cx="1043.5" cy="535.5" r="4.61"/><circle class="cls-335" cx="1043.5" cy="535.5" r="4.46"/><circle class="cls-336" cx="1043.5" cy="535.5" r="4.32"/><circle class="cls-337" cx="1043.5" cy="535.5" r="4.17"/><circle class="cls-338" cx="1043.5" cy="535.5" r="4.02"/><circle class="cls-339" cx="1043.5" cy="535.5" r="3.87"/><circle class="cls-340" cx="1043.5" cy="535.5" r="3.72"/><circle class="cls-341" cx="1043.5" cy="535.5" r="3.57"/><circle class="cls-342" cx="1043.5" cy="535.5" r="3.42"/><circle class="cls-343" cx="1043.5" cy="535.5" r="3.27"/><circle class="cls-344" cx="1043.5" cy="535.5" r="3.13"/><circle class="cls-345" cx="1043.5" cy="535.5" r="2.98"/><circle class="cls-346" cx="1043.5" cy="535.5" r="2.83"/><circle class="cls-347" cx="1043.5" cy="535.5" r="2.68"/><circle class="cls-348" cx="1043.5" cy="535.5" r="2.53"/><circle class="cls-349" cx="1043.5" cy="535.5" r="2.38"/><circle class="cls-350" cx="1043.5" cy="535.5" r="2.23"/><circle class="cls-351" cx="1043.5" cy="535.5" r="2.08"/><circle class="cls-352" cx="1043.5" cy="535.5" r="1.93"/><circle class="cls-353" cx="1043.5" cy="535.5" r="1.79"/><circle class="cls-354" cx="1043.5" cy="535.5" r="1.64"/><circle class="cls-355" cx="1043.5" cy="535.5" r="1.49"/><circle class="cls-356" cx="1043.5" cy="535.5" r="1.34"/><circle class="cls-357" cx="1043.5" cy="535.5" r="1.19"/><circle class="cls-358" cx="1043.5" cy="535.5" r="1.04"/><circle class="cls-359" cx="1043.5" cy="535.5" r="0.89"/><circle class="cls-360" cx="1043.5" cy="535.5" r="0.74"/><circle class="cls-361" cx="1043.5" cy="535.5" r="0.6"/><circle class="cls-362" cx="1043.5" cy="535.5" r="0.45"/><circle class="cls-152" cx="1043.5" cy="535.5" r="0.3"/><circle class="cls-3" cx="1043.5" cy="535.5" r="0.15"/></g><path class="cls-100" d="M914,941.48c-14.75,6.57-12.4,14.7-26,18.23-20,5.21-32.24-10.58-55.89-9.11-32.27,2-40.15,33.27-62.4,31.91-23.59-1.44-24.51-37.22-52-41-8.74-1.22-15.94,1.39-22.94,5.31a125.9,125.9,0,0,0,15.4,38.86,31.74,31.74,0,0,1,7.31-.4c12.13.7,10.79,6.63,26.42,10,24.61,5.35,50.74-4.39,58.51-7.29,9.71-3.63,11.91-5.77,17.93-5.48,17.91.88,33.77,21.59,30.2,27.36-3.26,5.26-19.41-7.09-48.13-4.56-25.29,2.23-28.34,13.18-48.13,11-14.68-1.66-19.77-8.44-29.13-10.49a133.78,133.78,0,0,0,31.59,25.61c23.26,2.45,55.77,5.15,90.42.38,8.72-1.2,36.89-5.52,34-27.33-1.75-13-13.66-25.11-13.12-31.33.81-9.11,26.19,17.77,51.08,21.4,8.79,1.29,14.8-.72,19.82-4.23a126,126,0,0,0,19.9-52.5C945.34,936,928.23,935.13,914,941.48Z"/><path class="cls-100" d="M895.75,809.91a136.06,136.06,0,0,0-49.61-17.45c7.27,6,15.67,11.83,25,15.32C880.77,811.39,888.56,811.47,895.75,809.91Z"/><path class="cls-101" d="M875.24,914.15c-2.38-1.78,9.52-19,31.81-24.35,10.25-2.45,24-.59,50,3.48a125.8,125.8,0,0,0-7.26-22.48c-39.23-5.1-63.29,4.81-78.36,15.71-11.24,8.13-18.19,17.31-33,20.36-20.22,4.15-34.82-7.21-51.92-14.93-17.9-8.08-45.32-15.26-85-8.14l-4.87,2.85A125.8,125.8,0,0,0,692,920.5c0,3.48.15,6.93.43,10.34,28.5-11.77,51.81-29.85,68.18-23.11,12.19,5,5.46,17.63,20.79,24.63,12.46,5.68,25.83,1.43,59.8-4.56,47.92-8.46,73.08-12.7,100.09-7.3a122.41,122.41,0,0,1,18.59,5.25c.07-1.75.12-3.49.12-5.25a127.24,127.24,0,0,0-.88-14.82c-16.34-4.24-19.84-8.85-33.57-9C896.88,896.38,878,916.17,875.24,914.15Z"/><path class="cls-100" d="M820.86,806c1.19-4.87.56-10-.51-14.89a136.15,136.15,0,0,0-76.38,27c7.91,1.47,16.06,2.79,24.41,3.87C779.49,823.42,815.58,827.63,820.86,806Z"/><path class="cls-363" d="M793.54,870.22c27.57-6.6,35.09-16.49,64.89-17.64,21.6-.84,31.91,3.81,49.56,6.78a170.23,170.23,0,0,0,37.31,2.11,130.9,130.9,0,0,0-35.59-42.08c-45.54,6.37-43.52,27.76-88.85,29.21-43.7,1.39-65.15-17.88-101.49-6.53a128.94,128.94,0,0,0-15.71,25.52C727.65,867.28,751.6,880.26,793.54,870.22Z"/><path class="cls-3" d="M820.86,848.6c45.33-1.45,43.31-22.84,88.85-29.21a132.2,132.2,0,0,0-14-9.48c-7.19,1.56-15,1.48-24.6-2.13-9.34-3.49-17.74-9.32-25-15.32A139.19,139.19,0,0,0,826,791c-1.89,0-3.77,0-5.65.12,1.07,4.86,1.7,10,.51,14.89-5.28,21.62-41.37,17.41-52.48,16-8.35-1.08-16.5-2.4-24.41-3.87a132.65,132.65,0,0,0-24.6,24C755.71,830.72,777.16,850,820.86,848.6Z"/><path class="cls-103" d="M786.46,891.94c17.1,7.72,31.7,19.08,51.92,14.93,14.84-3,21.79-12.23,33-20.36,15.07-10.9,39.13-20.81,78.36-15.71-1.37-3.17-2.85-6.29-4.47-9.33A170.23,170.23,0,0,1,908,859.36c-17.65-3-28-7.62-49.56-6.78-29.8,1.15-37.32,11-64.89,17.64-41.94,10-65.89-2.94-89.88-2.63a127,127,0,0,0-7,19.06l4.87-2.85C741.14,876.68,768.56,883.86,786.46,891.94Z"/><path class="cls-364" d="M802.41,1005.31c28.72-2.53,44.87,9.82,48.13,4.56,3.57-5.77-12.29-26.48-30.2-27.36-6-.29-8.22,1.85-17.93,5.48-7.77,2.9-33.9,12.64-58.51,7.29-15.63-3.4-14.29-9.33-26.42-10a31.74,31.74,0,0,0-7.31.4,130.73,130.73,0,0,0,15,20.12c9.36,2.05,14.45,8.83,29.13,10.49C774.07,1018.49,777.12,1007.54,802.41,1005.31Z"/><path class="cls-102" d="M841.2,927.8c-34,6-47.34,10.24-59.8,4.56-15.33-7-8.6-19.6-20.79-24.63-16.37-6.74-39.68,11.34-68.18,23.11a123.56,123.56,0,0,0,2.34,15.95c7-3.92,14.2-6.53,22.94-5.31,27.48,3.81,28.4,39.59,52,41,22.25,1.36,30.13-29.92,62.4-31.91,23.65-1.47,35.87,14.32,55.89,9.11,13.6-3.53,11.25-11.66,26-18.23,14.24-6.35,31.35-5.44,44.82-3.71q.83-5.92,1.07-12a122.41,122.41,0,0,0-18.59-5.25C914.28,915.1,889.12,919.34,841.2,927.8Z"/><path class="cls-98" d="M907.05,889.8c-22.29,5.32-34.19,22.57-31.81,24.35,2.71,2,21.64-17.77,50.31-17.47,13.73.15,17.23,4.76,33.57,9a123.84,123.84,0,0,0-2.09-12.4C931.05,889.21,917.3,887.35,907.05,889.8Z"/><path class="cls-365" d="M919.09,994.5C894.2,990.87,868.82,964,868,973.1c-.54,6.22,11.37,18.29,13.12,31.33,2.92,21.81-25.25,26.13-34,27.33-34.65,4.77-67.16,2.07-90.42-.38A136.82,136.82,0,0,0,826,1050c47.42,0,89.09-23.81,112.91-59.73C933.89,993.78,927.88,995.79,919.09,994.5Z"/><g class="cls-366"><ellipse class="cls-107" cx="1456.5" cy="869.5" rx="191.5" ry="180.5"/></g><path class="cls-367" d="M1618,772c-.55-4.77,76.1-26.79,83-13,9.42,18.84-108.76,109.57-241,165-111.37,46.68-237.34,70.26-243,55-4.22-11.37,57.12-47.59,61-43,2.07,2.46-13.71,14.88-11,20,6.06,11.44,98.68-24.68,180.64-61.43,22.37-10,215-96.9,207.36-117.57C1651.92,768.74,1618.36,775.14,1618,772Z"/><g class="cls-366"><path class="cls-368" d="M1196,935.35c-.41,4.44-27.19-.39-46,12.95-22.49,16-18.88,47.81-24.55,47.7-5.93-.12-.32-34.71-23-50.43-18.62-12.92-47.14-6.7-47.53-10.22-.43-4,36.7-2.44,55.45-22.48,14.93-16,11.31-38.22,15-38.16,3.46,0-.21,19,11.88,34.07C1155.39,931.15,1196.49,929.91,1196,935.35Z"/></g><g class="cls-366"><path class="cls-368" d="M1247.18,688.71c-.17,2-11.57-.18-19.55,5.76-9.57,7.13-8,21.29-10.45,21.24s-.14-15.46-9.78-22.45c-7.92-5.75-20.06-3-20.22-4.55-.19-1.77,15.61-1.09,23.59-10,6.36-7.11,4.82-17,6.41-17s-.09,8.48,5,15.16C1229.9,686.83,1247.39,686.28,1247.18,688.71Z"/></g><g class="cls-366"><path class="cls-368" d="M1754.18,388.71c-.17,2-11.57-.18-19.55,5.76-9.57,7.13-8,21.29-10.45,21.24s-.14-15.46-9.78-22.45c-7.92-5.75-20.06-3-20.22-4.55-.19-1.77,15.61-1.09,23.59-10,6.36-7.11,4.82-17,6.41-17s-.09,8.48,5,15.16C1736.9,386.83,1754.39,386.28,1754.18,388.71Z"/></g><g class="cls-366"><path class="cls-368" d="M1958,238.85c-.32,3.36-21-.3-35.46,9.79-17.36,12.1-14.57,36.15-19,36.07-4.58-.09-.25-26.25-17.73-38.13-14.37-9.77-36.38-5.07-36.68-7.73-.34-3,28.32-1.84,42.79-17,11.52-12.06,8.73-28.89,11.62-28.85,2.67,0-.16,14.4,9.17,25.76C1926.66,235.67,1958.38,234.73,1958,238.85Z"/></g><g class="cls-366"><path class="cls-368" d="M1856.18,985.71c-.17,2-11.57-.18-19.55,5.76-9.57,7.13-8,21.29-10.45,21.24s-.14-15.46-9.78-22.45c-7.92-5.75-20.06-3-20.22-4.55-.19-1.77,15.61-1.09,23.59-10,6.36-7.11,4.82-17,6.41-17s-.09,8.48,5,15.16C1838.9,983.83,1856.39,983.28,1856.18,985.71Z"/></g><g class="cls-366"><path class="cls-368" d="M1090,746.11c-.27,3.23-17.89-.29-30.22,9.42-14.8,11.64-12.42,34.77-16.16,34.69-3.9-.09-.2-25.25-15.11-36.68-12.25-9.39-31-4.87-31.26-7.43-.29-2.88,24.14-1.78,36.47-16.36,9.82-11.6,7.44-27.79,9.9-27.75,2.28,0-.13,13.86,7.82,24.78C1063.29,743.05,1090.32,742.15,1090,746.11Z"/></g><g class="cls-366"><path class="cls-368" d="M1898.25,790.22c-.17,2-11.57-.18-19.55,5.76-9.57,7.13-8,21.29-10.45,21.24s-.13-15.45-9.77-22.45c-7.93-5.75-20.06-3-20.23-4.55-.18-1.77,15.62-1.09,23.6-10,6.35-7.11,4.81-17,6.4-17s-.09,8.48,5.06,15.17C1881,788.35,1898.46,787.79,1898.25,790.22Z"/></g><g class="cls-366"><path class="cls-368" d="M1755.25,852.22c-.17,2-11.57-.18-19.55,5.76-9.57,7.13-8,21.29-10.45,21.24s-.13-15.45-9.77-22.45c-7.93-5.75-20.06-3-20.23-4.55-.18-1.77,15.62-1.09,23.6-10,6.35-7.11,4.81-17,6.4-17s-.09,8.48,5.06,15.17C1738,850.35,1755.46,849.79,1755.25,852.22Z"/></g><g class="cls-366"><path class="cls-368" d="M654,999.61c-.12,1.2-7.86-.11-13.28,3.5-6.5,4.32-5.46,12.92-7.1,12.89s-.09-9.38-6.63-13.63c-5.39-3.49-13.63-1.81-13.74-2.76s10.61-.66,16-6.08c4.31-4.31,3.26-10.33,4.34-10.31s-.06,5.15,3.44,9.21C642.26,998.47,654.14,998.14,654,999.61Z"/></g><g class="cls-366"><path class="cls-368" d="M1479.63,318.22c-.12,1.2-7.86-.1-13.28,3.5-6.5,4.33-5.46,12.92-7.1,12.89s-.09-9.38-6.63-13.62c-5.39-3.5-13.63-1.82-13.74-2.77s10.61-.66,16-6.07c4.31-4.32,3.26-10.33,4.34-10.32s-.06,5.15,3.44,9.21C1467.89,317.09,1479.77,316.75,1479.63,318.22Z"/></g><g class="cls-369"><path class="cls-367" d="M1102.84,497.13c.13-1.52,23-4.82,26.26,1.88,4.68,9.72-31.52,41.75-71.6,59.49-45.61,20.2-97.18,22.31-99.5,14.5-1.51-5.08,17.32-16.18,18.26-15.12.57.64-6,5.22-5.09,8,2.2,6.58,45.29,3.12,84.33-14.42,33.53-15.06,64.3-40.6,60.45-49.42C1113.93,497.46,1102.75,498.19,1102.84,497.13Z"/><path class="cls-367" d="M975.84,577.67c-7.36,0-12.85-.75-15.72-2.08a4.35,4.35,0,0,1-2.6-2.45c-1.28-4.31,9.59-11.48,13.88-13.88,4.52-2.51,5-2,5.23-1.72.52.59-.16,1.28-1.52,2.67-1.58,1.61-4,4-3.47,5.55a2.8,2.8,0,0,0,1.68,1.42c9.39,4.11,47.95-.85,82-16.14,35.09-15.76,63.66-40.83,60.2-48.76-1.23-2.83-6.61-3.52-9.82-3.93-2.33-.3-3.4-.43-3.33-1.26h0c0-.33.09-1,4.28-1.77,5.07-.94,20.16-2.3,22.93,3.47.67,1.39.6,3.19-.19,5.35-4.8,13-36.46,39.23-71.66,54.82C1027.08,572.51,995.1,577.67,975.84,577.67Zm-.42-19.24c-2.6.87-11.34,6-15.32,10.65-1.33,1.58-1.89,2.88-1.62,3.78a3.46,3.46,0,0,0,2.06,1.83c10.21,4.71,54.7,2,96.76-16.65,35-15.48,66.39-41.41,71.12-54.24.7-1.9.78-3.44.23-4.58-.8-1.66-3.15-2.83-6.81-3.38-6.84-1-15.84.34-18.08,1.22.52.11,1.31.21,2,.3,3.65.47,9.16,1.17,10.62,4.52,4,9.27-27.16,35-60.7,50.08a217.79,217.79,0,0,1-51,15.5c-14.76,2.51-26.93,2.75-31.77.63a3.69,3.69,0,0,1-2.23-2c-.7-2.09,1.85-4.68,3.7-6.57C974.74,559.16,975.13,558.75,975.42,558.43Z"/></g><g class="cls-366"><path class="cls-368" d="M798,624.81c-.24,3.09-15.92-.27-26.9,9C757.93,645,760,667.08,756.72,667c-3.47-.08-.18-24.14-13.45-35.08-10.9-9-27.6-4.66-27.83-7.11-.25-2.75,21.49-1.69,32.47-15.64,8.74-11.1,6.62-26.58,8.81-26.55,2,0-.12,13.26,7,23.71C774.22,621.89,798.29,621,798,624.81Z"/></g><g class="cls-366"><path class="cls-368" d="M1258.14,251.48c-.24,3.09-15.92-.28-26.9,9-13.17,11.13-11.06,33.25-14.38,33.18s-.19-24.15-13.45-35.08c-10.9-9-27.6-4.66-27.83-7.11-.25-2.76,21.49-1.7,32.47-15.64,8.74-11.1,6.62-26.59,8.81-26.55,2,0-.12,13.26,7,23.7C1234.36,248.56,1258.43,247.69,1258.14,251.48Z"/></g><g class="cls-366"><path class="cls-368" d="M1096.14,31.48c-.24,3.09-15.92-.28-26.9,9-13.17,11.13-11.06,33.25-14.38,33.18s-.19-24.15-13.45-35.08c-10.9-9-27.6-4.66-27.83-7.11-.25-2.76,21.49-1.7,32.47-15.64,8.74-11.1,6.62-26.59,8.81-26.55,2,0-.12,13.26,7,23.7C1072.36,28.56,1096.43,27.69,1096.14,31.48Z"/></g><g class="cls-366"><path class="cls-368" d="M923,349.65c-.16,1.85-10.69-.17-18.06,5.41-8.84,6.69-7.42,20-9.65,19.94s-.12-14.51-9-21.08c-7.32-5.4-18.53-2.8-18.68-4.27-.17-1.66,14.42-1,21.79-9.4,5.87-6.68,4.45-16,5.92-16s-.08,8,4.67,14.25C907,347.89,923.19,347.37,923,349.65Z"/></g><g class="cls-366"><path class="cls-368" d="M743,141.65c-.16,1.85-10.69-.17-18.06,5.41-8.84,6.69-7.42,20-9.65,19.94s-.12-14.51-9-21.08c-7.32-5.4-18.53-2.8-18.68-4.27-.17-1.66,14.42-1,21.79-9.4,5.87-6.68,4.45-16,5.92-16s-.08,8,4.67,14.25C727,139.89,743.19,139.37,743,141.65Z"/></g><g class="cls-366"><path class="cls-368" d="M507,779.65c-.16,1.85-10.69-.17-18.06,5.41-8.84,6.69-7.42,20-9.65,19.94s-.12-14.51-9-21.08c-7.32-5.4-18.53-2.8-18.68-4.27-.17-1.66,14.42-1,21.79-9.4,5.87-6.68,4.45-16,5.92-16s-.08,8,4.67,14.25C491,777.89,507.19,777.37,507,779.65Z"/></g><g class="cls-366"><path class="cls-368" d="M606,501c-.07,1.32-4.9-.12-8.28,3.84-4.06,4.75-3.41,14.19-4.43,14.16s-.06-10.3-4.14-15c-3.36-3.83-8.5-2-8.57-3s6.62-.72,10-6.67c2.69-4.74,2-11.35,2.71-11.33s0,5.65,2.14,10.11C598.68,499.75,606.09,499.38,606,501Z"/></g><g class="cls-366"><path class="cls-368" d="M321.91,936.75c-.07,1.31-4.9-.12-8.28,3.84-4.05,4.75-3.4,14.19-4.42,14.16s-.06-10.31-4.15-15c-3.35-3.83-8.49-2-8.56-3s6.61-.73,10-6.68c2.69-4.73,2-11.34,2.72-11.32s0,5.65,2.14,10.11C314.59,935.5,322,935.13,321.91,936.75Z"/></g><g class="cls-366"><path class="cls-368" d="M464.42,1072.68c-.07,1.32-4.9-.11-8.28,3.85-4.06,4.75-3.4,14.19-4.43,14.15s0-10.3-4.14-15c-3.36-3.84-8.5-2-8.57-3s6.62-.72,10-6.67c2.69-4.74,2-11.34,2.71-11.33s0,5.66,2.14,10.12C457.1,1071.44,464.51,1071.07,464.42,1072.68Z"/></g><g class="cls-366"><path class="cls-368" d="M281.59,667.19c-.07.79-4.9-.07-8.28,2.31-4.05,2.85-3.4,8.52-4.43,8.5s-.05-6.19-4.14-9c-3.35-2.3-8.49-1.19-8.56-1.82s6.61-.43,10-4c2.69-2.84,2-6.81,2.71-6.8s0,3.4,2.15,6.07C274.27,666.44,281.68,666.22,281.59,667.19Z"/></g><g class="cls-366"><path class="cls-368" d="M90.59,848.39c-.07.79-4.9-.07-8.28,2.3-4,2.86-3.4,8.52-4.43,8.5s0-6.18-4.14-9c-3.35-2.3-8.49-1.2-8.56-1.82s6.61-.44,10-4c2.69-2.85,2-6.81,2.71-6.8s0,3.39,2.15,6.07C83.27,847.64,90.68,847.42,90.59,848.39Z"/></g><g class="cls-366"><path class="cls-368" d="M479.4,262.85c-.08.79-4.9-.07-8.29,2.31-4.05,2.85-3.4,8.52-4.42,8.5s-.06-6.18-4.14-9c-3.36-2.31-8.5-1.2-8.57-1.83s6.61-.43,10-4c2.7-2.85,2-6.81,2.72-6.8s0,3.39,2.14,6.07C472.08,262.1,479.49,261.88,479.4,262.85Z"/></g><g class="cls-366"><path class="cls-368" d="M242,154.52c0,.55-2.51-.05-4.24,1.6-2.08,2-1.75,5.89-2.27,5.88s0-4.28-2.12-6.22c-1.72-1.59-4.36-.82-4.39-1.26s3.39-.3,5.12-2.77c1.38-2,1-4.71,1.39-4.7s0,2.34,1.1,4.2C238.25,154,242.05,153.85,242,154.52Z"/></g><g class="cls-366"><path class="cls-368" d="M85.2,375.86c0,.54-2.51-.05-4.24,1.59-2.08,2-1.75,5.9-2.27,5.88s0-4.28-2.12-6.21c-1.72-1.6-4.35-.83-4.39-1.26s3.39-.31,5.12-2.78c1.38-2,1-4.71,1.39-4.7s0,2.35,1.1,4.2C81.45,375.34,85.25,375.18,85.2,375.86Z"/></g><g class="cls-366"><path class="cls-368" d="M274.2,297.86c0,.54-2.51-.05-4.24,1.59-2.08,2-1.75,5.9-2.27,5.88s0-4.28-2.12-6.21c-1.72-1.6-4.35-.83-4.39-1.26s3.39-.31,5.12-2.78c1.38-2,1.05-4.71,1.39-4.7s0,2.35,1.1,4.2C270.45,297.34,274.25,297.18,274.2,297.86Z"/></g><g class="cls-366"><path class="cls-368" d="M358.2,482.86c0,.54-2.51-.05-4.24,1.59-2.08,2-1.75,5.9-2.27,5.88s0-4.28-2.12-6.21c-1.72-1.6-4.35-.83-4.39-1.26s3.39-.31,5.12-2.78c1.38-2,1.05-4.71,1.39-4.7s0,2.35,1.1,4.2C354.45,482.34,358.25,482.18,358.2,482.86Z"/></g><g class="cls-366"><path class="cls-368" d="M128.69,553.39c0,.55-2.52,0-4.25,1.6-2.07,2-1.74,5.89-2.26,5.88s0-4.28-2.13-6.22c-1.72-1.59-4.35-.82-4.39-1.26s3.39-.3,5.13-2.77c1.37-2,1-4.71,1.39-4.7s0,2.34,1.09,4.2C124.94,552.88,128.73,552.72,128.69,553.39Z"/></g><g class="cls-366"><path class="cls-368" d="M46.54,54c0,.55-2.51,0-4.25,1.6-2.07,2-1.74,5.9-2.26,5.88s0-4.28-2.13-6.22c-1.72-1.59-4.35-.82-4.38-1.26s3.38-.3,5.12-2.77c1.37-2,1-4.71,1.39-4.7s0,2.35,1.09,4.2C42.79,53.53,46.58,53.37,46.54,54Z"/></g></svg>