<svg id="Layer_1" data-name="Layer 1" xmlns="http://www.w3.org/2000/svg" width="161.61" height="160.02" viewBox="0 0 161.61 160.02"><defs><style>.cls-1{fill:#782db7;}.cls-2{fill:#ed85cf;}.cls-3{fill:#fffa9f;stroke:#ed85cf;stroke-miterlimit:10;stroke-width:2px;}</style></defs><path class="cls-1" d="M4.55,77.4V12.6H78.36a11.3,11.3,0,0,1,6.2,1.8,13.48,13.48,0,0,1,6.2,11.52V77.4H77.6V26.64H53.31V77.4H40.15V26.64H17.63V77.4Z"/><path class="cls-1" d="M103.09,135.72A15.34,15.34,0,0,1,97.6,131a11.1,11.1,0,0,1-2.07-6.48v-2.61h15.85v1.89h29.21v-5.4h-30a15.78,15.78,0,0,1-7.46-1.8,15.34,15.34,0,0,1-5.49-4.77,11.1,11.1,0,0,1-2.07-6.48V98.37a11.1,11.1,0,0,1,2.07-6.48,15.34,15.34,0,0,1,5.49-4.77,15.78,15.78,0,0,1,7.46-1.8h30.86a16,16,0,0,1,7.57,1.8,15.22,15.22,0,0,1,5.48,4.77,11.11,11.11,0,0,1,2.08,6.48V101H140.59V99.09H111.38v5.4h30a16,16,0,0,1,7.57,1.8,15.22,15.22,0,0,1,5.48,4.77,11.11,11.11,0,0,1,2.08,6.48v6.93a11.11,11.11,0,0,1-2.08,6.48,15.22,15.22,0,0,1-5.48,4.77,16,16,0,0,1-7.57,1.8H110.55A15.78,15.78,0,0,1,103.09,135.72Z"/><path class="cls-2" d="M152.81,82.46l-5-2c.64-1.83,7.78-23.41-6-42-10.36-14-28.37-20.62-46-17q-1-2.49-2-5a51.37,51.37,0,0,1,51,18C161.4,55.5,153.43,80.62,152.81,82.46Z"/><path class="cls-2" d="M7,83.77l5.32.81c-.21,1.93-2.24,24.57,15.42,39.52C41,135.34,60,137.72,76.37,130.17l3.09,4.41a51.34,51.34,0,0,1-53.76-5.9C4.74,112,6.78,85.7,7,83.77Z"/><circle class="cls-3" cx="145.81" cy="45.46" r="14"/></svg>